<svg xmlns="http://www.w3.org/2000/svg" width="500" height="500" viewBox="0 0 500 500" version="1.1"><path d="M 145.971 54.442 C 130.467 60.156, 120.621 70.177, 116.465 84.472 C 115.109 89.136, 114.854 92.691, 115.281 100.959 C 115.839 111.769, 116.405 115.109, 120.643 132.624 L 123.092 142.749 121.144 152.124 C 117.720 168.592, 115.261 181.179, 113.059 193.500 C 111.879 200.100, 110.465 207.975, 109.916 211 C 109.367 214.025, 108.238 222.125, 107.407 229 C 106.576 235.875, 105.489 244.650, 104.990 248.500 C 103.361 261.085, 102.628 309.568, 103.892 321.113 C 106.179 341.989, 115.577 372.437, 122.588 381.685 C 124.244 383.869, 128.888 386.776, 137.367 390.935 C 144.168 394.271, 150.294 397, 150.980 397 C 151.666 397, 153.864 397.840, 155.864 398.866 C 172.843 407.578, 217.611 425.166, 241.500 432.510 C 259.204 437.952, 261.595 438.615, 272 440.967 C 277.225 442.148, 284.200 443.843, 287.500 444.734 C 292.024 445.956, 297.928 446.344, 311.500 446.310 C 327.653 446.270, 330.499 445.998, 339.236 443.660 C 352.931 439.996, 363.713 433.920, 366.197 428.467 C 366.926 426.868, 368.144 426, 369.661 426 C 371.574 426, 372 426.527, 372 428.891 C 372 430.481, 372.890 433.743, 373.978 436.141 C 375.066 438.538, 375.966 441.530, 375.978 442.790 C 376.008 445.893, 379.535 452.607, 381.539 453.377 C 383.527 454.140, 408.712 454.184, 411.519 453.430 C 412.630 453.132, 414.489 451.450, 415.650 449.694 C 417.749 446.517, 417.762 446.071, 417.921 367.970 C 418.082 289.607, 418.077 289.429, 415.931 284.577 C 413.695 279.522, 410.614 276.170, 405.500 273.227 C 402.860 271.707, 399.260 271.501, 375.500 271.509 C 352.950 271.517, 347.456 271.805, 342.169 273.259 C 338.687 274.217, 335.051 275, 334.088 275 C 332.013 275, 321.653 278.087, 310.500 282.027 C 291.417 288.770, 287.069 289.504, 266.500 289.452 C 251.930 289.415, 245.635 288.983, 239.500 287.597 C 234.564 286.482, 225.454 285.587, 215.714 285.262 C 202.544 284.822, 199.788 284.466, 199.084 283.117 C 198.620 282.228, 197.472 277, 196.533 271.500 C 195.594 266, 194.406 260.116, 193.893 258.425 C 193.380 256.733, 192.305 251.558, 191.503 246.925 C 190.702 242.291, 189.403 235.800, 188.617 232.500 C 187.831 229.200, 186.216 222.450, 185.029 217.500 C 180.149 197.156, 178.901 189.820, 177.988 176.113 C 177.462 168.201, 177.249 160.663, 177.515 159.363 C 177.782 158.064, 178.253 155.797, 178.563 154.326 C 178.910 152.676, 183.257 147.605, 189.920 141.076 C 202.935 128.325, 206.010 123.099, 205.979 113.783 C 205.938 101.103, 197.676 69.327, 192.776 63 C 190.371 59.895, 185.310 57.097, 181.997 57.042 C 180.620 57.019, 176.346 56.100, 172.500 55 C 164.430 52.692, 151.459 52.419, 145.971 54.442 M 163.617 60.811 C 163.341 61.258, 164.787 63.845, 166.831 66.561 C 172.094 73.557, 173.696 78.950, 172.186 84.594 C 170.767 89.900, 170.652 94.667, 171.924 95.453 C 174.087 96.790, 177.143 89.915, 178.237 81.247 C 179.598 70.461, 178.654 67.938, 171.502 63.258 C 166.446 59.949, 164.519 59.352, 163.617 60.811 M 147.059 62.650 C 141.433 64.619, 138.466 66.454, 133.676 70.928 C 130.242 74.137, 125 83.075, 125 85.724 C 125 86.291, 124.325 87.315, 123.500 88 C 121.319 89.810, 121.536 102.089, 123.890 110.082 C 124.930 113.612, 126.547 120.100, 127.483 124.500 C 128.419 128.900, 129.869 135.021, 130.706 138.103 C 131.781 142.060, 131.932 144.263, 131.222 145.603 C 130.669 146.646, 129.703 150.829, 129.076 154.897 C 128.449 158.965, 127.707 162.665, 127.426 163.119 C 126.936 163.913, 126.085 168.186, 121.879 191 C 117.633 214.030, 116.834 219.143, 114.926 235.500 C 111.616 263.888, 110.761 279.524, 111.316 301.500 C 111.886 324.088, 113.898 336.875, 119.418 353 C 120.831 357.125, 122.004 361.175, 122.027 362 C 122.049 362.825, 122.937 365.300, 124 367.500 C 125.063 369.700, 125.947 371.881, 125.966 372.346 C 126.092 375.475, 130.807 379.134, 139.736 383.033 C 145.106 385.377, 152.808 388.834, 156.850 390.716 C 164.109 394.094, 167 394.371, 167 391.686 C 167 389.065, 170.725 386.704, 173.715 387.429 C 175.247 387.801, 178.871 388.578, 181.770 389.155 C 185.066 389.812, 187.405 390.889, 188.016 392.030 C 189.812 395.386, 188.169 396.882, 181.908 397.590 C 178.659 397.958, 176 398.595, 176 399.006 C 176 399.882, 185.247 404, 187.213 404 C 187.951 404, 189.443 404.605, 190.527 405.344 C 191.612 406.083, 193.850 407.175, 195.500 407.771 C 197.150 408.367, 200.975 409.822, 204 411.004 C 211.752 414.033, 251.488 427.374, 257.500 428.965 C 260.250 429.693, 265.650 431.130, 269.500 432.158 C 297.903 439.741, 318.674 441.092, 335.906 436.475 C 350.498 432.566, 358.971 427.039, 363.627 418.394 C 365.205 415.464, 365.271 414.524, 364.167 410.776 C 363.474 408.424, 362.465 404.765, 361.925 402.645 C 361.385 400.525, 360.248 397.447, 359.399 395.805 C 357.893 392.892, 357.808 392.864, 355.846 394.640 C 353.930 396.373, 341.821 399.869, 337.424 399.958 C 336.283 399.981, 334.368 398.956, 333.169 397.680 L 330.989 395.359 333.399 393.094 C 335.205 391.399, 337.781 390.583, 343.655 389.848 C 347.970 389.308, 352.790 389.120, 354.366 389.431 C 357.063 389.963, 357.196 389.834, 356.616 387.248 C 352.537 369.067, 351.197 340.390, 354.058 332.500 C 355.311 329.046, 355.918 328.500, 358.504 328.500 L 361.500 328.500 361.177 341.457 C 360.716 359.929, 363.910 385.236, 367.971 395.287 C 368.462 396.504, 369.644 400.200, 370.596 403.500 C 371.548 406.800, 373.833 412.729, 375.673 416.675 C 377.514 420.621, 379.304 425.346, 379.651 427.175 C 379.998 429.004, 380.740 431.393, 381.301 432.484 C 381.862 433.574, 382.811 436.949, 383.410 439.984 L 384.500 445.500 397 445.500 L 409.500 445.500 409.823 369 C 410.052 314.681, 409.821 291.408, 409.028 288.735 C 408.238 286.072, 406.700 284.168, 403.776 282.235 L 399.642 279.500 375.571 279.514 C 350.698 279.528, 351.402 279.451, 329 284.643 C 325.425 285.472, 316.650 288.190, 309.500 290.684 C 280.496 300.799, 268.567 301.392, 232 294.536 C 225.206 293.262, 211.064 292.468, 201.984 292.852 C 198.835 292.984, 198.116 293.587, 195.115 298.605 C 190.900 305.652, 177.731 321.061, 174.458 322.776 C 171.688 324.228, 168 322.964, 168 320.563 C 168 319.811, 171.633 315.219, 176.074 310.358 C 180.514 305.496, 185.770 298.848, 187.753 295.584 L 191.358 289.650 189.709 281.075 C 188.802 276.359, 187.125 267.325, 185.981 261 C 184.837 254.675, 183.242 246.575, 182.437 243 C 181.632 239.425, 179.874 231.550, 178.531 225.500 C 177.188 219.450, 175.168 210.900, 174.042 206.500 C 172.205 199.319, 168.845 171.961, 168.700 163 C 168.669 161.075, 169.435 156.832, 170.402 153.571 C 171.983 148.237, 173.263 146.532, 183.159 136.571 C 196.206 123.438, 198.433 119.764, 197.704 112.575 C 195.756 93.385, 192.167 79, 189.327 79 C 186.829 79, 184.747 86.054, 184.309 96 C 183.767 108.312, 183.427 109.730, 180.822 110.556 C 179.124 111.096, 178.059 110.523, 175.943 107.930 C 173.281 104.669, 173.195 104.642, 170.646 106.313 C 166.378 109.109, 156.124 111.318, 145.494 111.730 L 135.488 112.119 132.528 109.029 C 129.919 106.307, 129.482 104.964, 128.848 97.720 C 128.053 88.659, 129.002 86.231, 132.857 87.455 C 135.189 88.195, 136.986 93.301, 136.994 99.215 C 137.001 103.324, 139.567 105.590, 142.987 104.504 C 145.555 103.689, 146.316 100.867, 146.269 92.336 C 146.236 86.165, 145.777 84.348, 142.957 79.219 C 139.406 72.760, 139.507 70, 143.294 70 C 145.653 70, 150 73.690, 150 75.692 C 150 76.277, 150.632 77.280, 151.405 77.921 C 153.417 79.591, 155.226 91.346, 154.439 97.643 C 153.685 103.679, 154.583 104.301, 160.005 101.498 C 163.393 99.746, 163.970 97.509, 164.285 84.929 C 164.485 76.941, 164.304 76.074, 161.618 72.185 C 159.314 68.849, 158.850 67.309, 159.305 64.506 L 159.874 61 155.687 61.048 C 153.384 61.074, 149.501 61.795, 147.059 62.650 M 197.608 392.880 C 193.198 397.753, 199.857 401.217, 212.809 400.788 C 220.750 400.525, 221.526 400.320, 221.798 398.412 C 222.215 395.496, 220.329 394.265, 213.453 392.969 C 201.340 390.685, 199.604 390.675, 197.608 392.880 M 232.223 395.557 C 229.562 397.420, 229.324 400.583, 231.750 401.828 C 232.713 402.321, 237.637 403.006, 242.693 403.348 C 250.264 403.860, 252.162 403.695, 253.443 402.414 C 257.091 398.766, 254.915 396.658, 245.918 395.123 C 237.174 393.631, 234.867 393.704, 232.223 395.557 M 301.869 395.510 C 298.262 397.469, 297.654 399.654, 300.048 402.048 C 301.793 403.793, 302.915 403.975, 308.775 403.464 C 317.873 402.670, 320.196 402.118, 322.250 400.267 C 324.404 398.326, 324.433 397.576, 322.429 395.571 C 320.340 393.483, 305.680 393.439, 301.869 395.510 M 267.335 396.650 C 264.651 397.229, 263.677 399.528, 265.039 402.072 C 265.956 403.786, 267.224 404, 276.464 404 C 284.579 404, 287.202 403.656, 288.429 402.429 C 290.244 400.613, 290.319 400.053, 289.022 398 C 288.304 396.863, 285.828 396.462, 278.787 396.342 C 273.679 396.255, 268.526 396.394, 267.335 396.650" stroke="none" fill="#1a1a1a" fill-rule="evenodd"/></svg>