<svg xmlns="http://www.w3.org/2000/svg" width="500" height="500" viewBox="0 0 500 500" version="1.1"><path d="M 212.411 35.891 C 207.776 38.717, 205.177 42.608, 204.441 47.820 C 203.032 57.799, 199.832 69.491, 196.635 76.343 C 190.254 90.015, 183.006 94.792, 161.500 99.495 C 136.643 104.932, 117.876 110.019, 111.249 113.117 C 103.622 116.683, 95.345 122.658, 92.432 126.701 C 89.531 130.725, 83.239 144.062, 82.092 148.616 C 81.554 150.752, 80.589 154.300, 79.949 156.500 C 78.375 161.903, 77.091 235.209, 78.487 239.904 C 79.044 241.777, 80.770 244.252, 82.323 245.404 C 84.988 247.382, 86.475 247.508, 108.823 247.646 C 121.845 247.726, 132.802 247.838, 133.171 247.896 C 133.539 247.953, 134.162 249.461, 134.554 251.246 C 134.946 253.031, 135.830 255.844, 136.518 257.496 C 137.794 260.562, 139.193 265.823, 141.569 276.500 C 143.812 286.578, 146.033 295.346, 147.141 298.500 C 147.722 300.150, 148.526 303.075, 148.929 305 C 149.333 306.925, 150.413 309.940, 151.331 311.700 C 152.249 313.461, 153 315.546, 153 316.336 C 153 317.125, 153.647 319.960, 154.437 322.635 C 155.227 325.311, 156.993 331.325, 158.361 336 C 162.945 351.664, 162.661 365.204, 157.469 378.518 C 154.487 386.164, 153.596 387.800, 147.230 397.323 C 144.354 401.626, 142 405.503, 142 405.939 C 142 406.374, 141.152 407.808, 140.116 409.126 C 137.447 412.518, 132.875 420.816, 126.961 433 C 124.158 438.775, 121.428 444.310, 120.893 445.300 C 119.755 447.406, 118.137 454.611, 117.365 461 C 116.763 465.989, 119.082 470.525, 124.158 474.284 C 126.766 476.216, 129.066 476.253, 248.449 476.286 L 370.084 476.320 374.283 473.369 C 376.592 471.746, 379.042 469.311, 379.726 467.959 C 384.592 458.344, 373.578 431.226, 351.852 399.325 C 345.407 389.861, 341.538 382.618, 338.858 375 C 335.846 366.438, 335.596 347.744, 338.369 338.500 C 341.955 326.547, 344.216 319.431, 345.519 316 C 346.250 314.075, 347.109 310.925, 347.428 309 C 347.747 307.075, 348.621 304.150, 349.371 302.500 C 351.760 297.241, 355.001 286.587, 354.997 284 C 354.995 282.625, 355.883 278.350, 356.969 274.500 C 358.055 270.650, 359.690 263.954, 360.601 259.621 C 363.087 247.799, 361.944 248.289, 387.245 248.208 C 399.082 248.171, 410.533 247.664, 412.692 247.083 C 414.850 246.502, 417.702 244.783, 419.029 243.263 L 421.441 240.500 421.140 205.500 C 420.884 175.626, 420.556 169.119, 418.906 161.074 C 416.172 147.745, 414.620 142.972, 410.416 134.972 C 403.611 122.023, 389.120 111.998, 372.411 108.679 C 367.963 107.796, 363.013 106.569, 361.411 105.953 C 359.810 105.337, 355.350 104.250, 351.500 103.537 C 342.155 101.806, 320.956 95.534, 316.262 93.111 C 305.717 87.668, 297.697 73.015, 295.051 54.357 C 293.837 45.802, 290.701 39.556, 286.018 36.369 L 282.536 34 249.018 34.004 C 217.955 34.007, 215.274 34.145, 212.411 35.891 M 216.263 46.392 C 214.989 48.012, 214.086 51.181, 213.690 55.416 C 213.355 59.006, 212.387 63.284, 211.540 64.922 C 210.693 66.560, 209.994 68.936, 209.987 70.200 C 209.970 73.311, 204.835 83.233, 199.995 89.506 C 196.022 94.656, 190.506 99.607, 186.172 101.915 C 180.875 104.734, 167.249 108.830, 155.500 111.133 C 152.750 111.672, 148.475 112.602, 146 113.198 C 143.525 113.795, 138.350 114.852, 134.500 115.547 C 127.093 116.885, 113.666 121.679, 109.287 124.548 C 103.719 128.196, 98.303 134.098, 96.302 138.697 C 88.221 157.274, 87.500 162.583, 87.500 203.500 L 87.500 237.500 108.702 237.727 C 133.743 237.995, 133.032 238.267, 132.266 228.724 C 131.985 225.227, 132.266 219.985, 132.891 217.073 C 133.535 214.067, 134.034 202.454, 134.044 190.205 C 134.055 176.107, 134.439 168.176, 135.153 167.316 C 136.894 165.218, 140.789 165.739, 142.141 168.250 C 143.978 171.665, 144.447 195.471, 143.021 213 C 141.609 230.348, 142.544 245.171, 145.582 253.634 C 148.220 260.979, 159.061 269.086, 170.844 272.523 C 177.482 274.459, 178.228 274.413, 194.244 271.057 C 203.050 269.211, 215.009 262.647, 221.095 256.318 C 226.399 250.803, 230.995 242.451, 231.004 238.315 C 231.011 235.014, 234.799 230, 237.285 230 C 243.136 230, 243.534 236.254, 238.344 246.616 C 231.301 260.676, 222.029 269.483, 207.500 275.911 C 197.216 280.462, 177.523 282.574, 169.007 280.040 C 167.085 279.468, 164.249 279, 162.705 279 C 161.160 279, 158.140 277.989, 155.994 276.754 C 150.768 273.747, 149.274 275.152, 152.004 280.508 C 153.102 282.661, 154 285.482, 154 286.776 C 154 288.070, 154.859 291.238, 155.909 293.815 C 156.958 296.392, 158.591 301.875, 159.536 306 C 160.481 310.125, 163.028 319.090, 165.196 325.923 C 167.364 332.756, 169.852 343.288, 170.723 349.328 C 172.199 359.549, 172.188 360.949, 170.570 369.540 C 169.614 374.617, 168.272 379.835, 167.589 381.136 C 160.848 393.969, 156.685 400.880, 148.864 412.217 C 147.129 414.731, 140.308 427.473, 133.991 440 C 131.636 444.672, 128.240 454.840, 127.601 459.135 C 127.088 462.589, 127.285 464.142, 128.376 465.233 C 130.612 467.470, 168.276 468.056, 275.389 467.522 C 360.675 467.097, 368.430 466.921, 370.139 465.374 C 371.162 464.448, 371.988 462.972, 371.974 462.095 C 371.922 458.910, 365.647 441.760, 362.059 435 C 361.038 433.075, 358.585 428.431, 356.608 424.680 C 354.631 420.928, 351.435 415.482, 349.507 412.576 C 347.578 409.670, 346 407.018, 346 406.681 C 346 406.345, 343.613 402.341, 340.696 397.785 C 330.783 382.300, 327.995 373.241, 328.012 356.568 C 328.025 342.588, 329.919 333.733, 338.828 306 C 344.364 288.767, 345.295 285.544, 346.006 281.163 C 346.793 276.307, 345.621 275.062, 342.058 276.969 C 338.061 279.108, 324.654 282, 318.733 282 C 309.559 282, 295.081 279.088, 290 276.220 C 271.968 266.045, 265.074 259.242, 259.591 246.216 C 255.484 236.459, 256.310 230, 261.665 230 C 264.145 230, 265.396 231.799, 266.324 236.699 C 267.467 242.734, 273.156 252.723, 278.354 257.818 C 290.389 269.615, 307.420 274.803, 325.225 272.095 C 329.776 271.403, 335.075 270.110, 337 269.223 C 342.505 266.684, 352.802 255.719, 353.365 251.797 C 353.625 249.983, 354.543 244.156, 355.404 238.847 C 356.832 230.045, 356.828 228.108, 355.359 216.847 C 353.748 204.498, 353.122 176.342, 354.371 172.407 C 354.735 171.259, 356.168 169.713, 357.555 168.971 C 359.841 167.747, 360.305 167.851, 362.542 170.087 C 364.934 172.479, 364.978 172.783, 364.031 180.252 C 363.384 185.361, 363.403 191.911, 364.088 199.725 C 364.655 206.201, 365.369 217.125, 365.673 224 C 365.977 230.875, 366.585 236.950, 367.025 237.500 C 367.830 238.506, 409.452 238.024, 410.200 237 C 410.401 236.725, 410.294 219.400, 409.963 198.500 C 409.322 158.046, 409.429 159.001, 403.675 142.526 C 400.847 134.428, 391.733 125.166, 383.598 122.123 C 380.468 120.952, 376.146 119.095, 373.994 117.997 C 371.841 116.899, 369.049 116.001, 367.790 116.003 C 366.530 116.005, 362.350 115.134, 358.500 114.067 C 354.650 113, 347 111.152, 341.500 109.960 C 330.855 107.652, 320.194 104.744, 313.261 102.257 C 305.569 99.498, 293.289 85.092, 289.602 74.500 C 288.645 71.750, 286.741 64.325, 285.372 58 C 284.003 51.675, 282.437 46.050, 281.893 45.500 C 281.288 44.889, 268.713 44.383, 249.565 44.198 L 218.227 43.896 216.263 46.392 M 171.195 213.132 C 165.084 216.157, 160 223.113, 160 228.448 C 160 237.168, 169.139 246.035, 178.066 245.978 C 182.786 245.948, 189.052 242.915, 192.252 239.113 C 199.369 230.654, 195.810 218.475, 184.640 213.068 C 179.242 210.455, 176.579 210.467, 171.195 213.132 M 311.797 213.874 C 306.279 217.420, 303 223.068, 303 229.026 C 303 233.694, 304.113 236.277, 307.872 240.339 C 311.742 244.521, 315.252 246, 321.302 246 C 327.705 246, 331.986 243.550, 336.178 237.487 C 339.739 232.335, 339.829 227.288, 336.469 221.135 C 333.233 215.211, 328.001 211.754, 321.500 211.244 C 317.258 210.911, 315.787 211.309, 311.797 213.874 M 173.837 221.250 C 171.481 223.156, 169 227.238, 169 229.207 C 169 231.889, 174.125 236.933, 177.506 237.579 C 185.060 239.020, 189.243 228.088, 183.260 222.540 C 180.301 219.797, 176.309 219.250, 173.837 221.250 M 317.364 221.170 C 312.904 223.329, 311.726 230.111, 315.073 234.365 C 317.746 237.764, 323.737 238.054, 326.572 234.920 C 329.558 231.621, 329.107 225.349, 325.672 222.394 C 322.682 219.822, 320.738 219.536, 317.364 221.170 M 76.658 286.082 C 75.231 286.950, 74.954 287.939, 75.427 290.464 L 76.039 293.724 65.271 294.446 C 53.834 295.212, 52 295.910, 52 299.500 C 52 303.464, 54.430 304.349, 66.580 304.815 C 74.902 305.133, 78 305.595, 78 306.519 C 78 307.216, 77.325 308.045, 76.500 308.362 C 74.164 309.258, 74.734 312.595, 77.536 314.432 C 79.981 316.033, 80.234 315.984, 84.586 313.047 C 87.069 311.371, 89.369 310, 89.697 310 C 91.421 310, 100.964 302.687, 101.519 300.941 C 102.376 298.239, 101.120 296.894, 92.125 290.878 C 84.186 285.568, 79.758 284.195, 76.658 286.082 M 409.832 289.321 C 407.264 291.069, 403.101 293.726, 400.582 295.225 C 396.797 297.477, 396 298.462, 396 300.889 C 396 303.906, 396.019 303.921, 411.193 312.634 C 412.280 313.258, 413.670 314.270, 414.284 314.884 C 414.898 315.498, 416.630 316, 418.133 316 C 421.288 316, 422.498 313.546, 421.526 309.120 C 420.925 306.381, 421.063 306.263, 425.591 305.643 C 428.170 305.289, 433.330 305, 437.058 305 C 440.786 305, 444.548 304.727, 445.418 304.393 C 447.504 303.593, 447.504 298.407, 445.418 297.607 C 444.548 297.273, 438.947 297, 432.970 297 L 422.105 297 421.802 291.750 C 421.501 286.514, 421.491 286.500, 418 286.321 C 415.511 286.193, 413.151 287.060, 409.832 289.321 M 134.594 296.250 C 133.209 297.488, 130.934 301.591, 129.538 305.369 C 125.762 315.590, 126.205 320, 131.008 320 C 133.164 320, 134.295 319.165, 135.956 316.349 C 137.141 314.342, 138.381 311.304, 138.711 309.599 C 139.041 307.895, 140.141 304.932, 141.156 303.015 C 143.453 298.674, 143.448 298.448, 141 296 C 138.460 293.460, 137.682 293.490, 134.594 296.250 M 358.017 295.983 C 356.908 297.092, 356 298.359, 356 298.798 C 356 301.017, 362.008 316.352, 363.542 318.046 C 365.889 320.640, 369.677 320.592, 370.513 317.958 C 371.326 315.398, 370.198 308.303, 368.453 305 C 367.726 303.625, 366.870 301.271, 366.551 299.768 C 366.196 298.098, 364.818 296.440, 363.002 295.501 C 360.235 294.070, 359.897 294.103, 358.017 295.983 M 123.783 329.750 C 120.747 333.231, 119.750 336.463, 119.260 344.410 C 118.827 351.440, 119.007 352.715, 120.631 354.139 C 122.677 355.934, 126.737 355.116, 127.411 352.774 C 127.612 352.073, 128.742 347.281, 129.921 342.124 C 131.883 333.543, 131.933 332.547, 130.509 330.374 C 128.671 327.568, 125.910 327.312, 123.783 329.750 M 367.959 330.550 C 366.651 332.126, 367.474 339.332, 370.101 349.294 C 371.311 353.887, 374.574 355.834, 377.992 354.004 C 380.420 352.705, 380.418 353.273, 378.062 338.502 C 376.761 330.348, 371.538 326.237, 367.959 330.550 M 76.005 336.494 C 74.886 337.842, 74.908 339.324, 76.113 344 C 76.436 345.252, 74.514 345.583, 64.500 346 C 57.900 346.275, 51.938 346.864, 51.250 347.309 C 50.563 347.754, 50 349.186, 50 350.492 C 50 353.482, 52.382 354.347, 61.250 354.576 C 64.963 354.672, 69.760 354.806, 71.912 354.875 L 75.824 355 75.662 359.750 L 75.500 364.500 79.320 364.815 C 81.421 364.988, 83.799 364.582, 84.604 363.914 C 85.409 363.245, 88.267 361.529, 90.954 360.099 C 98.611 356.025, 102.114 352.482, 101.126 349.812 C 100.240 347.417, 81.606 335.021, 78.872 335.008 C 77.977 335.003, 76.687 335.672, 76.005 336.494 M 415.005 337.744 C 414.183 338.066, 411.457 339.773, 408.949 341.536 C 406.440 343.300, 403.471 345.033, 402.352 345.388 C 401.232 345.744, 399.268 347.150, 397.987 348.514 C 395.864 350.773, 395.781 351.223, 397.050 353.594 C 397.852 355.093, 400.995 357.471, 404.471 359.209 C 407.787 360.868, 411.175 362.785, 412 363.471 C 414.609 365.638, 419.501 366.859, 421.375 365.810 C 422.760 365.035, 422.975 364.013, 422.465 360.617 L 421.831 356.389 432.074 356.212 C 437.708 356.114, 443.146 355.771, 444.160 355.449 C 446.902 354.579, 448.294 351.418, 447 349 C 446.026 347.179, 444.906 347, 434.524 347 C 428.251 347, 422.861 346.584, 422.546 346.075 C 422.232 345.566, 422.496 344.004, 423.134 342.605 C 425.120 338.247, 420.606 335.548, 415.005 337.744 M 117.790 365.058 C 116.850 365.606, 115.832 367.730, 115.528 369.777 C 115.224 371.825, 114.481 376.316, 113.877 379.758 C 112.939 385.111, 113.016 386.375, 114.413 388.508 C 116.495 391.685, 120.433 391.805, 122.411 388.750 C 124.458 385.587, 125.703 367.552, 124.013 365.516 C 122.574 363.782, 120.269 363.612, 117.790 365.058 M 374.894 365.885 C 372.596 367.745, 372.582 367.881, 373.795 376.270 C 375.600 388.751, 376.566 391, 380.123 391 C 384.133 391, 384.950 388.332, 384.138 377.886 C 383.465 369.234, 381.373 364, 378.588 364 C 377.836 364, 376.174 364.848, 374.894 365.885 M 75.411 390.372 C 75.121 391.127, 75.023 393.039, 75.192 394.622 L 75.500 397.500 65.103 397.787 C 56.555 398.022, 54.199 398.434, 51.853 400.105 C 48.423 402.547, 48.243 404.357, 51.223 406.443 C 52.929 407.638, 56.181 408, 65.223 408 C 71.700 408, 76.984 408.337, 76.965 408.750 C 76.945 409.163, 76.310 410.618, 75.554 411.984 C 72.744 417.060, 78.098 419.938, 84 416.524 C 85.375 415.729, 87.175 414.751, 88 414.350 C 92.360 412.233, 100.068 406.741, 100.924 405.142 C 102.342 402.492, 100.061 399.746, 93.241 395.894 C 90.084 394.110, 86.427 391.829, 85.115 390.825 C 82.301 388.672, 76.173 388.386, 75.411 390.372 M 414.494 391.010 C 414.151 391.565, 410.516 393.861, 406.416 396.111 C 402.317 398.360, 398.475 401.113, 397.878 402.227 C 396.477 404.846, 398.120 408.665, 401.238 410.032 C 402.482 410.578, 406.801 413.044, 410.835 415.512 C 414.869 417.980, 418.781 420, 419.528 420 C 421.878 420, 424.048 415.959, 422.875 413.767 C 420.650 409.609, 422.186 409, 434.901 409 C 445.987 409, 446.912 408.853, 447.500 407 C 448.476 403.924, 447.106 400.992, 444.164 399.862 C 442.699 399.299, 437.450 398.987, 432.500 399.169 L 423.500 399.500 423.500 396 C 423.500 394.075, 423.136 391.938, 422.691 391.250 C 421.725 389.757, 415.383 389.571, 414.494 391.010 M 247.058 398.430 C 245.386 400.445, 246.142 407.074, 248.191 408.357 C 249.484 409.166, 250.369 408.976, 251.941 407.553 C 254.700 405.056, 254.618 400.546, 251.777 398.557 C 249.042 396.641, 248.554 396.628, 247.058 398.430 M 114.500 402.575 C 112.738 403.907, 112.500 405.257, 112.500 413.938 C 112.500 424.692, 113.919 428, 118.533 428 C 122.163 428, 122.849 426.012, 123.148 414.625 C 123.403 404.928, 123.232 403.643, 121.525 402.395 C 119.095 400.617, 117.020 400.671, 114.500 402.575 M 377.035 402.934 C 376.466 403.998, 376 409.537, 376 415.243 C 376 427.341, 377.137 430.170, 381.248 428.297 C 384.226 426.940, 385 423.745, 385 412.809 C 385 403.720, 383.964 401, 380.500 401 C 379.121 401, 377.623 401.837, 377.035 402.934" stroke="none" fill="#1c1c1c" fill-rule="evenodd"/></svg>