<svg xmlns="http://www.w3.org/2000/svg" width="500" height="500" viewBox="0 0 500 500" version="1.1"><path d="M 210.002 61.096 C 201.246 62.818, 197.639 67.270, 195.495 79 C 191.220 102.396, 186.015 114.909, 176.533 124.578 C 168.483 132.789, 157.469 137.605, 139 140.991 C 131.777 142.315, 115.086 145.767, 107.500 147.505 C 91.988 151.059, 73.829 159.030, 66.021 165.714 C 62.218 168.969, 54 179.086, 54 180.512 C 54 180.841, 53.180 182.998, 52.177 185.305 C 48.193 194.473, 46.990 197.664, 46.071 201.500 C 45.545 203.700, 44.604 207.300, 43.981 209.500 C 43.290 211.944, 42.587 228.479, 42.175 252 C 41.804 273.175, 41.148 291.043, 40.718 291.707 C 40.287 292.371, 39.502 298.973, 38.973 306.378 C 38.444 313.783, 37.522 321.114, 36.924 322.671 C 36.326 324.227, 35.444 332.373, 34.963 340.773 C 34.482 349.174, 33.875 356.394, 33.612 356.818 C 33.350 357.242, 32.407 368.819, 31.515 382.545 C 30.624 396.270, 29.659 408.455, 29.371 409.623 C 28.750 412.138, 31.312 421.301, 33.622 424.826 C 36.152 428.688, 40.124 431.812, 44.500 433.381 C 54.188 436.857, 67.632 439.304, 77.030 439.304 C 85.583 439.304, 87.106 439.020, 91.062 436.686 C 93.503 435.246, 96.665 432.590, 98.088 430.784 C 101.837 426.028, 104.834 415.831, 105.520 405.500 C 105.848 400.550, 106.738 393.575, 107.498 390 C 108.257 386.425, 109.140 379.450, 109.460 374.500 C 109.780 369.550, 110.702 363.025, 111.509 360 C 112.316 356.975, 112.988 352.250, 113.003 349.500 C 113.018 346.750, 113.482 343.825, 114.034 343 C 114.914 341.685, 115.200 341.711, 116.350 343.209 C 117.071 344.150, 118.159 347.300, 118.767 350.209 C 121.101 361.375, 121.905 364.735, 123.981 372 C 125.159 376.125, 126.727 381.975, 127.464 385 C 128.202 388.025, 129.924 393.875, 131.290 398 C 132.657 402.125, 135.022 409.550, 136.546 414.500 C 140.467 427.238, 144.340 432.683, 152.793 437.347 C 159.697 441.156, 177.569 442.723, 223 443.501 C 267.518 444.264, 324.230 442.746, 334.267 440.523 C 347.652 437.558, 355.370 429.668, 359.463 414.767 C 360.861 409.676, 362.940 403.285, 365.567 396 C 369.594 384.829, 370.669 380.686, 374.257 362.500 C 375.017 358.650, 376.131 354.600, 376.733 353.500 C 377.334 352.400, 378.203 349.336, 378.663 346.691 C 379.123 344.046, 379.926 341.796, 380.447 341.691 C 381.447 341.489, 383.757 352.530, 386.370 370 C 387.233 375.775, 388.593 384.325, 389.391 389 C 390.188 393.675, 391.532 401.775, 392.377 407 C 396.646 433.412, 397.328 435.526, 402.966 439.814 L 407.432 443.211 417.466 442.674 C 440.772 441.429, 464.427 432.116, 466.635 423.316 C 467.447 420.082, 466.499 396.517, 465.093 385 C 464.175 377.476, 462.836 362.329, 459.967 327 C 459.498 321.225, 458.410 311.325, 457.550 305 C 456.625 298.195, 455.585 278.802, 455.002 257.500 C 453.902 217.229, 453.259 210.409, 449.517 199.266 C 440.699 173.013, 428.374 160.727, 402.204 152.105 C 389.101 147.787, 384.093 146.491, 372.500 144.416 C 355.167 141.313, 338.854 137.175, 331.776 134.085 C 322.735 130.138, 312.657 118.727, 307.832 106.972 C 305.287 100.773, 301.789 86.467, 300.514 77.046 C 299.731 71.261, 296.704 66.469, 291.926 63.453 L 288.094 61.035 251.297 60.623 C 231.059 60.396, 212.476 60.609, 210.002 61.096 M 208.217 70.304 C 205.518 71.881, 205.046 72.823, 204.455 77.804 C 202.032 98.240, 192.690 120.382, 181.987 131.056 C 180.577 132.462, 177.416 134.973, 174.962 136.635 C 163.988 144.070, 153.013 147.569, 119 154.477 C 90.315 160.303, 76.961 165.886, 67.841 175.865 C 61.890 182.376, 54 197.982, 54 203.242 C 54 204.584, 53.312 207.891, 52.470 210.591 C 51.258 214.481, 50.831 223.287, 50.415 253 C 50.048 279.215, 49.476 292.456, 48.513 297 C 46.594 306.055, 43.912 329.025, 42.968 344.500 C 42.532 351.650, 41.704 360.425, 41.128 364 C 40.553 367.575, 39.773 380.644, 39.396 393.042 C 38.572 420.074, 38.962 421.654, 47.405 425.487 C 53.687 428.338, 70.719 432, 77.703 432 C 83.878 432, 89.041 429.324, 91.847 424.670 C 93.746 421.519, 96.377 409.516, 97.473 399 C 97.788 395.975, 98.706 389.450, 99.512 384.500 C 104.164 355.943, 105.009 350.122, 105.027 346.500 C 105.038 344.300, 105.513 340.700, 106.081 338.500 C 106.649 336.300, 107.529 332.863, 108.037 330.863 C 108.544 328.862, 109.157 303.662, 109.398 274.863 L 109.836 222.500 112.434 221.551 C 116.067 220.225, 117.737 222.223, 119.102 229.529 C 120.465 236.818, 119.754 266.249, 118.033 273.764 C 116.067 282.355, 117.182 309.925, 119.824 318 C 125.009 333.854, 135.336 343.611, 152.158 348.554 C 156.608 349.861, 160.346 350.102, 169.658 349.682 C 185.746 348.957, 192.528 347.185, 205.146 340.411 C 213.247 336.062, 225.685 318.821, 227.430 309.524 C 228.801 302.215, 231.016 298, 233.486 298 C 234.734 298, 236.332 298.695, 237.036 299.543 C 238.349 301.126, 238.369 300.984, 234.963 314.213 C 234.059 317.723, 231.849 322.733, 228.219 329.500 C 226.570 332.574, 212.146 347, 210.721 347 C 210.286 347, 208.728 347.787, 207.260 348.749 C 204.063 350.844, 199.275 352.700, 192.500 354.471 C 189.750 355.190, 186.150 356.344, 184.500 357.035 C 182.640 357.814, 176.370 358.327, 168 358.384 C 156.259 358.466, 153.659 358.176, 148.049 356.160 C 140.633 353.497, 137.522 351.973, 132.388 348.489 C 127.704 345.310, 125.574 345.226, 126.327 348.250 C 126.636 349.488, 127.260 352.032, 127.715 353.905 C 128.171 355.777, 129.208 357.637, 130.021 358.039 C 132.597 359.310, 136.406 360.925, 139.313 361.979 C 141.723 362.852, 142.082 363.465, 141.813 366.249 C 141.512 369.373, 141.324 369.504, 137 369.592 C 131.988 369.695, 131.700 370.409, 134.011 377 C 137.957 388.254, 138.925 391.206, 140.897 398 C 142.095 402.125, 143.549 406.850, 144.129 408.500 C 144.709 410.150, 145.664 413.300, 146.251 415.500 C 148.647 424.474, 157.084 432, 164.749 432 C 166.416 432, 171.541 432.738, 176.140 433.641 C 183.330 435.052, 193.035 435.283, 245.500 435.290 C 287.909 435.296, 309.091 434.930, 315 434.089 C 319.675 433.423, 326.200 432.630, 329.500 432.325 C 333.119 431.991, 337.152 430.828, 339.663 429.394 C 345.864 425.854, 347.700 422.357, 354.048 402 C 355.677 396.775, 357.419 391.600, 357.920 390.500 C 358.420 389.400, 359.285 386.700, 359.843 384.500 C 360.400 382.300, 361.572 378.558, 362.446 376.184 C 364.268 371.236, 363.733 369.599, 360.553 370.397 C 357.172 371.246, 354.564 368.873, 355.366 365.678 C 355.849 363.753, 357.307 362.493, 360.780 360.999 C 364.746 359.293, 365.902 358.149, 367.766 354.086 C 369.837 349.572, 370.699 345, 369.480 345 C 369.194 345, 367.057 346.223, 364.730 347.717 C 357.872 352.122, 354.277 353.920, 350.272 354.949 C 348.198 355.481, 344.039 356.611, 341.032 357.459 C 334.026 359.434, 319.287 359.424, 311.500 357.440 C 308.200 356.598, 303.700 355.468, 301.500 354.926 C 292.559 352.727, 283.049 346.833, 275.643 338.902 C 271.714 334.694, 267.553 329.282, 266.394 326.876 C 262.522 318.828, 260.196 312.548, 258.921 306.700 C 257.738 301.272, 257.788 300.768, 259.706 298.849 C 261.417 297.138, 262.115 296.991, 263.926 297.960 C 266.308 299.235, 268 302.797, 268 306.538 C 268 308.701, 270.824 316.085, 273.149 320 C 273.639 320.825, 274.746 323.044, 275.610 324.932 C 277.833 329.794, 288.517 339.984, 294.913 343.342 C 297.890 344.905, 303.740 347.123, 307.913 348.270 C 324.678 352.879, 350.136 349.423, 359.954 341.206 C 365.844 336.277, 370.475 330.721, 372.628 326 C 374.007 322.975, 375.876 319.150, 376.780 317.500 C 378.143 315.013, 378.431 311.163, 378.462 295 C 378.483 284.275, 377.870 268.932, 377.101 260.905 C 375.940 248.796, 375.920 244.624, 376.985 236.405 C 378.437 225.190, 379.257 223, 382 223 C 385.554 223, 386.284 226.436, 385.593 239.908 C 385.025 250.995, 385.944 271.502, 387.682 286.500 C 388 289.250, 387.706 297.800, 387.029 305.500 C 386.079 316.292, 386.066 320.531, 386.972 324 C 387.618 326.475, 388.568 330.975, 389.082 334 C 389.596 337.025, 390.525 342.425, 391.147 346 C 392.876 355.936, 394.702 366.759, 395.956 374.500 C 397.101 381.571, 399.915 397.223, 402.518 411 C 403.298 415.125, 404.148 421.142, 404.408 424.372 C 405.267 435.047, 408.998 436.651, 425.477 433.434 C 442.063 430.195, 453.549 426.174, 457.145 422.346 C 459.388 419.958, 459.393 419.884, 458.154 406.723 C 457.469 399.450, 456.279 385.175, 455.508 375 C 452.740 338.439, 451.865 328.399, 450.887 322 C 447.413 299.271, 445.806 278.544, 445.382 251 C 444.966 223.895, 444.232 214.434, 441.658 203 C 436.733 181.122, 425.317 168.651, 403.500 161.315 C 390.844 157.059, 387.178 156.055, 377 154.058 C 323.601 143.577, 310.316 135.587, 299.592 107.500 C 295.995 98.080, 293.164 87.994, 292.435 82 C 291.581 74.981, 289.813 71.570, 286.297 70.159 C 284.456 69.419, 271.168 68.944, 247.402 68.768 C 214.131 68.521, 211.061 68.641, 208.217 70.304 M 310.614 235.602 C 306.416 236.436, 302.414 237.973, 300.364 239.536 C 296.595 242.411, 296.603 242.390, 298.035 245.066 C 299.275 247.382, 301.669 247.495, 307.866 245.531 C 310.415 244.723, 314.473 243.710, 316.884 243.281 C 319.681 242.783, 321.789 241.712, 322.707 240.323 C 324.001 238.366, 323.937 237.937, 322.073 236.073 C 319.733 233.733, 319.969 233.743, 310.614 235.602 M 173.509 236.978 L 171.519 239.189 174.315 241.595 C 176.255 243.263, 178.330 244, 181.088 244 C 183.275 244, 186.680 244.675, 188.654 245.500 C 194.063 247.760, 196.845 247.435, 198.235 244.383 C 199.286 242.076, 199.155 241.544, 197.134 239.907 C 194.263 237.583, 189.231 236.119, 181.500 235.358 C 176.162 234.833, 175.280 235.012, 173.509 236.978 M 150.500 238.749 C 141.055 243.114, 138.849 244.898, 139.198 247.891 C 139.573 251.109, 142.316 251.788, 146.461 249.688 C 149.235 248.282, 151.244 247.414, 159.188 244.190 C 162.245 242.949, 164.214 239.964, 163.131 238.211 C 161.588 235.715, 156.607 235.927, 150.500 238.749 M 334.571 237.571 C 331.449 240.693, 333.494 243.081, 342.259 246.547 C 345.976 248.017, 349.265 249.620, 349.568 250.110 C 349.870 250.599, 351.651 251, 353.524 251 C 355.957 251, 357.250 250.402, 358.050 248.906 C 359.681 245.859, 356.476 242.897, 347.450 239.108 C 339.082 235.595, 336.818 235.325, 334.571 237.571 M 206.667 248.667 C 205.224 250.109, 206.117 253.849, 208.250 255.297 C 209.488 256.137, 212.975 259.115, 216 261.914 C 222.415 267.851, 226.270 268.500, 226.818 263.736 C 227.532 257.521, 210.528 244.805, 206.667 248.667 M 276.267 253.997 C 267.037 261.681, 265.294 267, 272.005 267 C 274.137 267, 276.880 265.259, 282.497 260.341 C 288.771 254.847, 290.049 253.228, 289.801 251.091 C 289.560 249.018, 288.900 248.447, 286.500 248.237 C 284.102 248.027, 282.049 249.183, 276.267 253.997 M 328.976 276.534 C 319.978 279.308, 314.503 287.458, 315.197 297.046 C 315.547 301.885, 316.208 303.548, 319.264 307.278 C 324.380 313.521, 328.725 315.376, 336.725 314.734 C 342.337 314.284, 343.688 313.744, 347.677 310.360 C 350.899 307.627, 352.819 304.912, 354.255 301.058 C 356.232 295.752, 356.239 295.483, 354.502 290.374 C 352.288 283.861, 347.169 278.810, 340.572 276.629 C 334.806 274.723, 334.849 274.724, 328.976 276.534 M 152.962 278.250 C 142.853 283.348, 138.723 296.663, 144.614 305.165 C 146.052 307.239, 148.864 310.188, 150.864 311.718 C 154.099 314.193, 155.332 314.500, 162.040 314.500 C 169.093 314.500, 169.856 314.282, 173.833 311.132 C 178.626 307.336, 183 299.620, 183 294.961 C 183 291.201, 178.913 283.946, 174.884 280.556 C 169.054 275.650, 160.005 274.698, 152.962 278.250 M 156.791 284.820 C 153.799 286.010, 150 292.159, 150 295.812 C 150 298.474, 150.892 300.127, 154.011 303.246 C 157.806 307.042, 158.276 307.229, 162.729 306.727 C 171.153 305.778, 174.951 298.894, 171.892 290.119 C 170.156 285.141, 162.628 282.499, 156.791 284.820 M 330.500 284.718 C 326.937 285.512, 323.500 290.947, 323.500 295.787 C 323.500 299.578, 324.009 300.620, 327.363 303.694 C 330.875 306.912, 331.637 307.188, 335.731 306.727 C 342.004 306.020, 345.129 302.714, 345.763 296.114 C 346.219 291.368, 346.028 290.828, 342.725 287.525 C 339.203 284.003, 336.496 283.382, 330.500 284.718 M 229.531 337.548 C 228.043 339.499, 225.088 342.816, 222.964 344.919 C 218.149 349.686, 216.924 353.524, 219.915 354.473 C 223.175 355.508, 225.777 354.200, 230.309 349.248 C 232.614 346.729, 235.215 343.955, 236.090 343.084 C 238.436 340.746, 239.127 338.105, 237.961 335.928 C 236.305 332.833, 232.581 333.549, 229.531 337.548 M 260.632 336.115 C 258.659 338.932, 259.305 340.304, 266.370 348.299 C 271.623 354.243, 272.764 355.061, 275.439 354.799 C 277.875 354.561, 278.551 353.989, 278.749 352 C 278.941 350.080, 277.267 347.701, 271.536 341.750 C 267.431 337.488, 263.632 334, 263.093 334 C 262.554 334, 261.447 334.952, 260.632 336.115 M 198.144 362.006 C 194.098 364.105, 189.902 366.054, 188.820 366.337 C 187.339 366.724, 186.933 367.549, 187.176 369.676 C 187.699 374.235, 192.949 374.058, 203.477 369.124 C 211.353 365.433, 212 364.905, 212 362.172 C 212 356.780, 208.301 356.736, 198.144 362.006 M 286.384 360.442 C 285.179 363.581, 286.772 365.511, 293.501 369.064 C 302.388 373.757, 306.157 374.503, 309.069 372.145 C 310.902 370.661, 311.080 370.018, 310.141 368.264 C 309.523 367.108, 307.598 365.851, 305.864 365.470 C 304.130 365.089, 300.506 363.478, 297.811 361.889 C 292.528 358.774, 287.279 358.109, 286.384 360.442 M 153.250 368.508 C 150.394 370.546, 150.410 372.097, 153.314 374.826 C 155.356 376.744, 156.741 376.998, 165.064 376.985 C 174.860 376.969, 176.236 376.615, 177.254 373.847 C 178.415 370.694, 175.815 369.233, 168 368.644 C 163.875 368.334, 159.375 367.815, 158 367.491 C 156.468 367.131, 154.629 367.524, 153.250 368.508 M 335.500 368.048 C 333.850 368.555, 330.142 368.918, 327.261 368.854 C 321.426 368.724, 318.747 370.236, 319.202 373.403 C 319.730 377.081, 323.775 378.091, 334.627 377.256 C 344.219 376.518, 344.480 376.432, 345.440 373.697 C 347.314 368.354, 342.819 365.799, 335.500 368.048" stroke="none" fill="#161616" fill-rule="evenodd"/></svg>