<svg xmlns="http://www.w3.org/2000/svg" width="500" height="500" viewBox="0 0 500 500" version="1.1"><path d="M 198 47.010 C 156.631 51.438, 123.902 61.890, 98.797 78.690 C 95.110 81.157, 91.623 82.885, 91.047 82.529 C 90.471 82.173, 90 79.749, 90 77.141 C 90 71.944, 88.754 70, 85.422 70 C 81.392 70, 81.061 71.646, 82.107 86.498 C 82.647 94.167, 83.508 102.255, 84.020 104.471 C 85.354 110.242, 85.329 110.296, 81.750 109.542 C 69.554 106.971, 64.901 108.237, 57.404 116.167 C 49.469 124.561, 45.832 133.559, 45.772 144.945 C 45.736 151.869, 48.197 165.458, 50.400 170.500 C 51.120 172.150, 52.486 175.300, 53.434 177.500 C 59.169 190.810, 75.763 209.015, 91.568 219.336 C 97.106 222.953, 102.834 226.367, 104.298 226.923 C 107.139 228.003, 108.403 230.361, 113.991 245 C 117.947 255.366, 127.115 273.168, 131.084 278.191 C 132.688 280.222, 134 282.151, 134 282.480 C 134 283.697, 148.071 301.699, 153.495 307.422 C 163.412 317.884, 162.999 316.701, 163.007 334.654 C 163.020 363.662, 157.157 388.836, 146.508 405.500 C 133.615 425.675, 112.627 439.582, 86.109 445.523 C 78.592 447.207, 75 449.297, 75 451.988 C 75 454.478, 78.478 456.343, 81.865 455.669 C 87.544 454.539, 93.685 452.670, 97.610 450.877 C 99.870 449.845, 102.225 449, 102.842 449 C 103.460 449, 108.136 446.957, 113.233 444.459 C 129.306 436.584, 139.485 428.397, 149.072 415.635 C 159.406 401.876, 165.044 388.584, 168.003 371 C 170.604 355.540, 170.961 351.850, 170.980 340.219 C 170.996 330.303, 171.285 327.828, 172.482 327.368 C 173.356 327.033, 176.539 328.810, 180.232 331.694 C 190.643 339.823, 206.995 350.135, 215.307 353.812 C 234.357 362.238, 255.332 362.033, 272.500 353.251 C 284.080 347.328, 298.775 336.758, 310.690 325.781 C 316.080 320.816, 319.011 319.745, 318.985 322.750 C 318.976 323.712, 319.189 331.925, 319.457 341 C 319.888 355.601, 320.728 362.435, 323.941 377.500 C 325.080 382.838, 330.160 396.525, 332.844 401.485 C 334.030 403.677, 335 405.795, 335 406.191 C 335 407.889, 343.599 419.037, 349.787 425.362 C 356.954 432.687, 363.835 437.745, 373.500 442.791 C 380.328 446.356, 397.235 453, 399.479 453 C 400.300 453, 402.917 453.520, 405.295 454.156 C 411.115 455.713, 415 454.690, 415 451.602 C 415 448.936, 413.009 447.891, 403.500 445.565 C 372.139 437.894, 351.087 421.316, 338.461 394.349 C 336.558 390.283, 335 386.348, 335 385.604 C 335 384.860, 334.305 382.282, 333.455 379.876 C 329.090 367.513, 327.793 357.908, 327.326 334.500 C 326.800 308.142, 325.738 311.881, 337.979 297 C 345.434 287.937, 361 265.415, 361 263.691 C 361 263.123, 361.643 261.947, 362.428 261.079 C 363.214 260.210, 366.395 254.325, 369.497 248 C 372.599 241.675, 375.731 235.375, 376.458 234 C 377.184 232.625, 380.716 229.925, 384.307 228 C 399.411 219.904, 407.426 213.946, 417.843 203.076 C 424.473 196.156, 433.265 185.365, 435.112 181.881 C 435.875 180.441, 437.557 177.334, 438.849 174.977 C 443.420 166.637, 446 155.565, 446 144.282 C 446 134.902, 445.722 133.326, 443.072 127.708 C 439.796 120.761, 432.483 112.804, 426.623 109.810 C 422.719 107.816, 417.708 107.737, 409.250 109.536 C 405.344 110.367, 405.255 109.815, 407.533 98.799 C 408.546 93.903, 408.971 87.328, 408.783 79.442 L 408.500 67.500 405.381 67.196 C 401.647 66.833, 401.034 68.314, 401.014 77.750 C 401.001 83.349, 400.790 84, 398.980 84 C 397.869 84, 395.282 82.951, 393.230 81.668 C 389.419 79.286, 376.255 73.123, 365.500 68.686 C 319.101 49.545, 253.561 41.063, 198 47.010 M 203.593 55.054 C 195.943 55.556, 187.393 56.429, 184.593 56.994 C 181.792 57.559, 176.575 58.480, 173 59.040 C 166.708 60.027, 164.375 60.617, 149.582 64.966 C 145.776 66.085, 142.062 67, 141.328 67 C 140.594 67, 138.314 67.900, 136.261 69 C 134.209 70.100, 131.997 71, 131.346 71 C 130.695 71, 128.888 71.637, 127.331 72.416 C 125.774 73.194, 123.375 74.342, 122 74.967 C 114.352 78.442, 100.161 87.085, 95.909 90.859 L 91.647 94.641 92.825 103.071 C 93.472 107.707, 94.002 113.323, 94.001 115.550 C 94.001 117.778, 94.444 120.044, 94.986 120.586 C 95.528 121.128, 96.410 125.802, 96.945 130.972 C 97.851 139.733, 98.913 145.645, 102.520 162 C 103.309 165.575, 104.393 171.337, 104.930 174.804 C 105.611 179.198, 106.829 182.363, 108.953 185.251 C 112.167 189.621, 112.647 191.923, 110.991 195.018 C 109.828 197.189, 112.070 213.113, 114.512 220.035 C 115.331 222.354, 116 225.124, 116 226.190 C 116 227.257, 116.958 230.463, 118.129 233.315 C 119.300 236.167, 120.763 239.840, 121.379 241.479 C 123.420 246.902, 133.452 266.396, 137.509 272.821 C 147.976 289.399, 177.537 322, 182.102 322 C 183.146 322, 184.867 321.133, 185.926 320.074 C 189.547 316.453, 194.431 319.974, 193.887 325.813 C 193.750 327.291, 193.944 329.400, 194.319 330.500 C 195.543 334.091, 215.077 345.445, 227.022 349.507 C 236.823 352.841, 249.702 352.975, 259.056 349.841 C 266.622 347.305, 277.054 341.992, 282 338.156 C 283.925 336.663, 286.625 334.729, 288 333.859 C 289.375 332.988, 292.011 330.863, 293.858 329.136 C 296.486 326.678, 297.083 325.468, 296.606 323.567 C 296.271 322.232, 296.436 319.983, 296.974 318.569 C 298.093 315.625, 301.335 315.183, 304.463 317.548 C 306.299 318.936, 306.971 318.495, 314.808 310.766 C 328.210 297.551, 345.766 274.545, 354.695 258.500 C 359.141 250.510, 366.554 235.120, 367.460 232 C 368.131 229.686, 368.927 227.780, 373.367 217.849 C 374.265 215.841, 375 213.659, 375 213 C 375 212.341, 375.652 210.384, 376.449 208.651 C 377.245 206.918, 378.327 203.038, 378.852 200.030 C 379.733 194.982, 379.622 194.339, 377.404 191.703 C 374.157 187.844, 374.375 186.266, 378.422 184.336 C 382.569 182.358, 384.540 178.733, 386.487 169.500 C 387.299 165.650, 388.395 160.700, 388.921 158.500 C 389.447 156.300, 390.838 148.875, 392.011 142 C 393.185 135.125, 394.597 127.250, 395.149 124.500 C 396.223 119.150, 398.238 101.088, 398.208 97.076 C 398.198 95.736, 397.141 93.834, 395.845 92.822 C 392.471 90.190, 369.063 78.844, 358.500 74.721 C 337.895 66.679, 303.694 58.539, 279.500 55.919 C 267.151 54.582, 219.119 54.034, 203.593 55.054 M 129.783 81.801 C 119.103 86.409, 111.587 92.675, 105.433 102.103 C 101.971 107.406, 100.954 109.848, 101.190 112.289 C 101.446 114.939, 101.972 115.554, 104.199 115.811 C 106.416 116.067, 107.352 115.402, 109.449 112.081 C 110.852 109.858, 112 107.572, 112 107.001 C 112 106.430, 114.870 103.093, 118.378 99.585 C 126.499 91.463, 138.080 85.558, 144.407 86.311 C 153.627 87.407, 182.064 93.440, 184.811 94.881 C 185.740 95.369, 188.525 96.096, 191 96.497 C 193.475 96.898, 195.950 97.585, 196.500 98.025 C 197.880 99.126, 208.211 102.999, 209.771 102.999 C 210.471 103, 211.557 101.871, 212.186 100.490 C 213.167 98.338, 213.003 97.632, 211.039 95.542 C 209.780 94.201, 207.343 92.814, 205.624 92.459 C 202.138 91.740, 195.043 89.561, 187.500 86.894 C 180.367 84.371, 148.350 77.981, 143 78.013 C 140.056 78.030, 135.486 79.340, 129.783 81.801 M 323 80.126 C 303.104 84.149, 298.337 85.243, 293 87.010 C 289.975 88.011, 284.338 89.818, 280.474 91.024 C 276.610 92.231, 272.131 94.351, 270.521 95.735 L 267.594 98.253 269.908 100.127 C 272.897 102.547, 273.820 102.495, 281.192 99.500 C 284.576 98.125, 287.940 97, 288.668 97 C 289.396 97, 292.581 96.144, 295.746 95.098 C 302.914 92.729, 319.083 89, 322.187 89 C 323.463 89, 327.543 88.132, 331.255 87.070 C 338.860 84.895, 340.234 85.101, 350.333 89.920 C 358.105 93.629, 367.674 102.629, 370.874 109.239 C 373.556 114.779, 375.178 116.259, 378.093 115.827 C 382.399 115.188, 382.676 112.657, 379.188 105.815 C 377.417 102.342, 374.681 98.093, 373.108 96.373 C 368.365 91.187, 358.966 84.778, 351.011 81.304 C 342.138 77.430, 337.333 77.228, 323 80.126 M 158.806 110.250 C 158.111 111.487, 157.504 114.221, 157.458 116.325 C 157.320 122.622, 153 123.757, 153 117.497 C 153 115.372, 152.113 113.080, 150.618 111.342 C 148.485 108.862, 147.964 108.696, 145.645 109.752 C 142.541 111.166, 141.310 115.189, 142.908 118.697 C 144.556 122.315, 141.964 126.248, 138.219 125.810 C 136.057 125.558, 135.397 124.790, 134.665 121.675 C 133.612 117.198, 130.072 114.866, 127.530 116.975 C 125.576 118.597, 125.539 125.008, 127.468 127.559 C 129.548 130.308, 129.341 132.678, 126.967 133.298 C 125.545 133.670, 124.449 133.089, 123.318 131.363 C 122.074 129.464, 120.987 128.965, 118.601 129.198 C 116.019 129.449, 115.445 129.979, 115.173 132.364 C 114.777 135.826, 119.206 141, 122.565 141 C 125.950 141, 127.122 143.090, 125.973 147.078 C 124.728 151.398, 126.584 153.104, 131.636 152.284 C 134.505 151.819, 135.608 152.208, 138.050 154.548 C 139.673 156.102, 141 158.220, 141 159.253 C 141 164.663, 145.332 166.668, 149.030 162.970 C 150.811 161.189, 151.544 161.069, 154.989 161.997 C 157.695 162.726, 159.322 163.902, 160.218 165.777 C 162.010 169.528, 165.622 169.923, 167.165 166.538 C 168.343 163.952, 175.490 160, 178.989 160 C 179.942 160, 184.065 157.797, 188.149 155.104 C 192.233 152.411, 197.487 149.635, 199.824 148.935 C 204.879 147.420, 209 143.885, 209 141.064 C 209 139.946, 207.762 137.701, 206.250 136.075 C 202.301 131.830, 182.722 122.154, 176.538 121.391 C 169.515 120.525, 167 118.743, 167 114.632 C 167 108.834, 161.311 105.792, 158.806 110.250 M 323.714 108.619 C 323.321 109.012, 322.993 110.721, 322.985 112.417 C 322.963 116.811, 322.105 117.633, 316.712 118.428 C 303.617 120.358, 280 134.012, 280 139.651 C 280 142.435, 285.314 147.016, 290.241 148.479 C 293.041 149.311, 296.045 150.623, 296.916 151.395 C 300.274 154.372, 312.057 160, 314.931 160 C 317.266 160, 318.296 160.672, 319.485 162.970 C 321.218 166.321, 324.463 168.450, 326.201 167.376 C 326.838 166.982, 328.676 165.161, 330.284 163.330 C 333.649 159.497, 336.593 159.105, 340.273 162 C 344.807 165.567, 346.850 164.301, 348.396 156.964 C 348.690 155.569, 350.249 153.452, 351.861 152.261 C 354.367 150.408, 355.218 150.256, 357.748 151.211 C 359.374 151.825, 361.446 152.043, 362.353 151.695 C 364.245 150.969, 364.604 146.004, 362.887 144.287 C 361.443 142.843, 362.607 141, 364.962 141 C 365.977 141, 368.975 139.036, 371.626 136.637 C 376.151 132.540, 376.372 132.112, 375.244 129.637 C 373.652 126.143, 370.736 126.249, 366.034 129.973 C 363.969 131.609, 361.992 132.659, 361.640 132.307 C 360.402 131.069, 361.021 127.079, 362.960 123.793 C 364.622 120.976, 364.732 120.094, 363.685 117.986 C 361.709 114.008, 358.565 114.274, 355.577 118.673 C 354.159 120.758, 353 123.035, 353 123.732 C 353 125.625, 349.547 125.262, 347.655 123.171 C 346.570 121.973, 346 119.585, 346 116.243 C 346 111.060, 344.316 108, 341.464 108 C 339.701 108, 338 111.120, 338 114.352 C 338 118.346, 336.949 120, 334.412 120 C 331.899 120, 331.283 118.646, 330.770 112 C 330.531 108.905, 330.149 108.466, 327.464 108.203 C 325.794 108.039, 324.107 108.227, 323.714 108.619 M 70.500 117.657 C 66.663 119.673, 61.397 124.647, 58.988 128.530 C 52.982 138.212, 55.041 163.575, 62.882 176.500 C 69.909 188.084, 73.063 192.197, 80.521 199.500 C 92.426 211.157, 101.883 217.617, 103.415 215.137 C 104.451 213.462, 101.017 195.221, 94.436 167.436 C 93.646 164.101, 93 160.425, 93 159.267 C 93 158.109, 92.356 154.538, 91.568 151.331 C 90.780 148.124, 89.827 142.161, 89.450 138.080 C 89.072 134, 87.991 128.375, 87.047 125.580 C 85.581 121.237, 84.691 120.182, 80.916 118.309 C 75.620 115.681, 74.404 115.605, 70.500 117.657 M 412 118.042 C 408.975 119.088, 406.439 119.956, 406.364 119.972 C 405.391 120.173, 403.027 127.858, 402.510 132.500 C 402.143 135.800, 401.018 142.100, 400.010 146.500 C 399.003 150.900, 397.649 157.425, 397.002 161 C 394.029 177.434, 393.054 182.035, 392.193 183.705 C 391.684 184.692, 390.957 187.940, 390.577 190.923 C 390.196 193.906, 389.382 197.281, 388.768 198.423 C 388.153 199.565, 387.314 202.075, 386.903 204 C 386.492 205.925, 385.342 209.624, 384.347 212.219 C 382.994 215.748, 382.825 217.225, 383.677 218.077 C 386.136 220.536, 410.457 199.839, 421.956 185.500 C 439.340 163.823, 442.922 136.076, 430.004 123.158 C 426.956 120.109, 420.025 115.916, 418.290 116.070 C 417.855 116.109, 415.025 116.996, 412 118.042 M 327.783 127.550 C 327.481 127.853, 327.593 129.694, 328.032 131.643 C 328.497 133.705, 328.408 136.401, 327.818 138.093 C 326.885 140.769, 326.415 141, 321.902 141 C 316.328 141, 315.379 142.708, 319.465 145.385 C 324.763 148.857, 332.392 146.198, 335.368 139.842 C 337.173 135.986, 337.175 135.740, 335.431 132.501 C 333.482 128.882, 329.214 126.119, 327.783 127.550 M 157 129.698 C 154.387 130.624, 153 133.258, 153 137.291 C 153 140.403, 153.693 141.893, 156.400 144.600 C 159.247 147.447, 160.523 148, 164.245 148 C 167.281 148, 169.215 147.420, 170.345 146.171 C 173.471 142.717, 171.876 141, 165.541 141 C 161.237 141, 159.778 139.073, 160.176 133.910 C 160.502 129.680, 159.774 128.715, 157 129.698 M 300.017 133.668 C 294.128 136.251, 290.611 139.138, 292.158 140.119 C 292.896 140.587, 294.448 140.976, 295.606 140.985 C 296.765 140.993, 299.775 142.575, 302.296 144.500 C 306.326 147.577, 310 149.002, 310 147.489 C 310 147.208, 309.108 145.071, 308.018 142.739 C 306.928 140.408, 306.141 137.168, 306.268 135.539 C 306.547 131.974, 304.960 131.499, 300.017 133.668 M 183.563 133.770 C 183.253 134.080, 183 136.493, 183 139.131 C 183 142.906, 182.573 144.158, 181 145 C 179.355 145.881, 178.035 150, 179.398 150 C 179.617 150, 182.654 148.265, 186.148 146.144 C 189.642 144.023, 193.512 141.968, 194.750 141.577 C 195.988 141.185, 197 140.289, 197 139.584 C 197 137.840, 184.781 132.553, 183.563 133.770 M 346.016 133.990 C 345.260 134.457, 344.952 135.707, 345.281 136.965 C 345.643 138.350, 344.971 140.428, 343.424 142.707 C 340.535 146.964, 340.408 148, 342.775 148 C 344.820 148, 353 139.706, 353 137.633 C 353 135.088, 348.248 132.610, 346.016 133.990 M 139.415 134.744 C 136.642 136.674, 136.231 139.277, 138.177 142.575 C 139.894 145.486, 145.952 151, 147.433 151 C 148.638 151, 147.925 146.183, 146.552 145.043 C 145.755 144.382, 144.967 141.739, 144.802 139.170 C 144.556 135.372, 144.126 134.452, 142.500 134.244 C 141.400 134.104, 140.012 134.329, 139.415 134.744 M 218.540 194.740 C 212.040 201.750, 217.465 216.539, 231.333 229.614 C 239.122 236.959, 242.219 238.381, 244.800 235.800 C 246.988 233.612, 246.074 232.104, 237.205 223.265 C 226.395 212.492, 223.988 207.473, 225.953 199.806 C 226.935 195.974, 226.940 194.633, 225.977 193.472 C 224.118 191.232, 221.356 191.703, 218.540 194.740 M 361.738 194.660 C 359.413 196.314, 358 198.129, 358 199.460 C 358 204.400, 363.102 205.468, 367.804 201.512 C 371.383 198.500, 372.337 195.480, 370.340 193.482 C 368.198 191.341, 365.975 191.645, 361.738 194.660 M 118.115 196.908 C 115.863 198.334, 117.588 202.387, 121.686 205.303 C 124.983 207.649, 125.664 207.803, 127.462 206.612 C 130.327 204.713, 130.486 202.491, 128.004 199.006 C 126.386 196.734, 125.087 196.004, 122.682 196.015 C 120.932 196.024, 118.877 196.425, 118.115 196.908 M 348.976 207.771 C 343.480 210.522, 342.299 217.826, 347.194 218.792 C 348.986 219.145, 357.277 211.330, 356.758 209.775 C 356.556 209.168, 355.499 208.079, 354.410 207.356 C 352.739 206.247, 351.891 206.311, 348.976 207.771 M 133.655 210.829 C 131.382 213.341, 131.552 214.309, 134.901 217.894 C 138.076 221.293, 141.957 221.962, 144.028 219.466 C 145.737 217.407, 143.607 213.350, 139.500 210.841 C 135.798 208.579, 135.691 208.579, 133.655 210.829 M 253.121 218.948 C 248.485 220.117, 246.337 223.844, 249.250 225.662 C 251.130 226.836, 266.074 227.031, 268.170 225.909 C 272.569 223.555, 268.510 219.131, 261.387 218.517 C 258.699 218.285, 254.979 218.479, 253.121 218.948 M 332.634 225.023 C 328.503 229.932, 329.312 234, 334.419 234 C 338.390 234, 342.291 229.360, 341.812 225.206 C 341.557 222.991, 340.935 222.445, 338.384 222.197 C 335.917 221.956, 334.719 222.546, 332.634 225.023 M 146 228.896 C 146 230.960, 147.016 232.685, 149.535 234.896 C 153.465 238.347, 154.069 238.531, 155.800 236.800 C 159.408 233.192, 155.004 226, 149.186 226 C 146.338 226, 146 226.307, 146 228.896 M 321.923 240.923 C 318.746 244.100, 318.202 247.527, 320.399 250.532 C 321.621 252.202, 322.098 252.280, 324.149 251.147 C 325.442 250.432, 327.528 248.252, 328.785 246.302 C 330.907 243.009, 330.959 242.586, 329.512 240.378 C 327.453 237.236, 325.468 237.378, 321.923 240.923 M 159.420 243.481 C 157.903 245.797, 157.922 246.182, 159.696 249.231 C 161.809 252.862, 165.877 254.058, 167.886 251.638 C 170.077 248.998, 165.342 241, 161.589 241 C 161.290 241, 160.314 242.117, 159.420 243.481 M 221.500 255.536 C 212.182 260.227, 193.181 273.366, 192.265 275.751 C 190.684 279.872, 200.775 292.285, 211.549 299.472 C 236.052 315.817, 272.868 310.147, 291.433 287.169 C 298.608 278.288, 298.844 275.393, 292.750 270.998 C 269.060 253.913, 260.763 250.565, 251.598 254.394 C 246.813 256.394, 243.443 256.420, 238 254.500 C 231.928 252.358, 227.228 252.653, 221.500 255.536 M 311.905 258.941 C 308.515 262.331, 308.223 266.499, 311.243 268.390 C 312.673 269.285, 313.635 268.832, 316.600 265.866 C 320.539 261.928, 320.640 258.948, 316.905 256.949 C 315.291 256.085, 314.410 256.437, 311.905 258.941 M 169.973 262.051 C 168.247 265.275, 171.700 270.500, 175.556 270.500 C 178.041 270.500, 178.550 270.061, 178.823 267.685 C 179.523 261.572, 172.591 257.158, 169.973 262.051 M 225 262.339 C 220.537 264.440, 214 269, 214 270.013 C 214 271.250, 214.806 271.334, 223.797 271.033 C 228.108 270.889, 234.131 271.504, 238.513 272.536 C 245.570 274.197, 246.235 274.198, 252.145 272.539 C 256.518 271.312, 260.897 270.900, 266.929 271.148 C 277.871 271.597, 278.243 270.086, 268.500 264.779 C 260.994 260.691, 259.814 260.589, 249.279 263.126 C 244.779 264.209, 243.315 264.149, 238.691 262.692 C 232.551 260.756, 228.580 260.654, 225 262.339 M 304.051 277.662 C 300.959 281.593, 300.451 284.736, 302.536 287.040 C 305.390 290.194, 307.633 289.454, 310.080 284.554 C 312.189 280.332, 312.216 279.979, 310.627 277.554 C 308.491 274.293, 306.677 274.323, 304.051 277.662 M 178.906 279.613 C 177.437 281.383, 178.352 288.974, 180.174 290.129 C 182.567 291.646, 185.024 291.041, 186.105 288.668 C 188.381 283.674, 182.097 275.769, 178.906 279.613 M 205.503 279.830 C 202.341 282.992, 213.892 293.199, 225.500 297.500 C 232.263 300.007, 255.527 300.805, 259.696 298.674 C 261.238 297.886, 264.011 296.915, 265.857 296.517 C 271.960 295.202, 285.395 284.293, 284.790 281.145 C 284.511 279.694, 282.763 279.530, 269.987 279.756 C 249.748 280.113, 237.825 280.096, 220.753 279.683 C 212.642 279.487, 205.780 279.553, 205.503 279.830 M 298.557 298.223 C 296.708 300.862, 296.512 306.112, 298.200 307.800 C 298.860 308.460, 300.446 309, 301.725 309 C 304.283 309, 306 305.842, 306 301.135 C 306 295.994, 301.383 294.187, 298.557 298.223 M 184.238 298.213 C 182.162 300.714, 181.839 304.679, 183.405 308.427 C 184.732 311.604, 185.354 312.091, 187.728 311.819 C 189.987 311.559, 190.667 310.825, 191.401 307.852 C 192.884 301.854, 187.372 294.437, 184.238 298.213" stroke="none" fill="#161616" fill-rule="evenodd"/></svg>