<svg xmlns="http://www.w3.org/2000/svg" width="500" height="500" viewBox="0 0 500 500" version="1.1"><path d="M 158.981 44.947 C 152.089 45.871, 147.208 48.148, 143.240 52.289 C 139.424 56.271, 135 64.512, 135 67.639 C 135 68.926, 133.619 74.596, 131.931 80.240 C 130.243 85.883, 128.514 91.850, 128.089 93.500 C 127.164 97.097, 120.581 114.276, 118.510 118.500 C 109.245 137.395, 94.828 170.834, 90.618 183.190 C 85.432 198.413, 83.929 207.899, 83.290 229.448 C 82.742 247.935, 84.254 271.852, 87.119 290 C 87.683 293.575, 88.577 300.325, 89.104 305 C 89.632 309.675, 90.519 316.875, 91.076 321 C 91.632 325.125, 92.709 333.225, 93.469 339 C 94.229 344.775, 95.290 351.750, 95.826 354.500 C 96.361 357.250, 97.113 363.325, 97.497 368 C 97.880 372.675, 98.781 379.425, 99.500 383 C 100.219 386.575, 101.115 393.325, 101.493 398 C 101.871 402.675, 102.578 408.356, 103.066 410.624 C 103.553 412.892, 104.421 418.891, 104.995 423.955 C 106.182 434.432, 109.150 446.032, 111.630 449.886 C 114.007 453.579, 116.879 456.250, 121.500 459.064 L 125.500 461.500 169.500 461.500 C 212.797 461.500, 213.564 461.465, 217.500 459.324 C 222.785 456.448, 227.143 452.311, 230.576 446.910 C 233.051 443.017, 233.523 440.917, 234.602 429 C 236.148 411.925, 237.733 397.383, 239.508 384 C 240.274 378.225, 241.143 366.750, 241.440 358.500 C 241.959 344.045, 243.560 334.980, 245.722 334.259 C 247.493 333.669, 248.013 336.768, 248.980 353.666 C 249.496 362.682, 250.159 370.449, 250.454 370.926 C 250.749 371.404, 251.692 379.797, 252.549 389.579 C 253.406 399.361, 254.338 407.737, 254.620 408.194 C 254.902 408.650, 255.551 414.555, 256.063 421.317 C 257.744 443.530, 261.635 452.762, 271.845 458.763 L 276.500 461.500 321 461.500 C 364.734 461.500, 365.569 461.463, 369.500 459.335 C 378.478 454.475, 384.196 444.849, 385.439 432.500 C 385.772 429.200, 386.699 423.125, 387.500 419 C 389.544 408.473, 392.151 392.594, 393 385.500 C 393.714 379.536, 395.671 367.257, 398.498 351 C 401.139 335.819, 402.049 329.663, 403.085 320 C 403.645 314.775, 404.759 307.125, 405.561 303 C 406.364 298.875, 407.958 285.161, 409.103 272.524 C 411.101 250.495, 411.121 248.827, 409.599 232.024 C 408.206 216.643, 407.174 210.555, 402.898 192.500 C 399.983 180.194, 394.738 166.480, 384.541 144.500 C 382.499 140.100, 380.018 134.700, 379.026 132.500 C 378.034 130.300, 375.883 125.575, 374.245 122 C 372.608 118.425, 370.932 114.375, 370.523 113 C 370.113 111.625, 369.173 109.150, 368.433 107.500 C 365.611 101.201, 360.735 85.976, 357.063 72 C 355.834 67.325, 354.081 61.700, 353.167 59.500 C 350.273 52.538, 342.505 46.728, 334.032 45.188 C 327.865 44.067, 167.190 43.846, 158.981 44.947 M 151.729 56.750 C 147.535 59.961, 145.758 63.535, 142.908 74.500 C 141.764 78.900, 140.226 84.750, 139.491 87.500 C 137.630 94.455, 131.450 111.907, 129.571 115.511 C 128.714 117.155, 128.010 119.007, 128.006 119.628 C 128.003 120.248, 127.369 121.279, 126.598 121.919 C 125.827 122.558, 124.928 124.150, 124.601 125.455 C 124.273 126.761, 121.529 133.058, 118.502 139.450 C 115.476 145.842, 113 151.264, 113 151.498 C 113 151.732, 111.473 155.203, 109.606 159.212 C 107.740 163.220, 105.020 169.650, 103.562 173.500 C 102.104 177.350, 100.437 181.625, 99.857 183 C 94.258 196.271, 90.411 226.797, 91.917 246.001 C 93.921 271.568, 95.884 292.004, 96.419 292.869 C 96.723 293.360, 97.427 298.959, 97.983 305.310 C 98.540 311.662, 99.456 318.069, 100.018 319.548 C 100.581 321.028, 101.473 326.122, 102.002 330.869 C 104.675 354.882, 107.131 373.159, 108.469 379 C 109.288 382.575, 109.967 387.525, 109.977 390 C 109.987 392.475, 110.645 398.325, 111.438 403 C 112.231 407.675, 113.889 418.396, 115.123 426.824 C 117.625 443.919, 118.973 446.805, 126.500 451.177 L 130.500 453.500 170.500 453.498 L 210.500 453.497 214.500 450.878 C 216.700 449.438, 219.225 447.414, 220.111 446.380 C 223.389 442.555, 225.805 428.007, 228.976 393 C 229.449 387.775, 230.536 378.775, 231.390 373 C 232.244 367.225, 233.205 358, 233.526 352.500 C 233.846 347, 234.748 338.225, 235.530 333 C 236.312 327.775, 237.446 319.106, 238.050 313.735 C 238.654 308.363, 239.556 302.549, 240.054 300.812 C 241.308 296.439, 239.948 295.082, 235.240 296.008 C 233.183 296.413, 230.233 297.252, 228.685 297.872 C 227.137 298.492, 223.762 299.003, 221.185 299.008 C 218.608 299.012, 213.575 299.503, 210 300.099 C 201.185 301.568, 183.472 301.561, 171.423 300.083 C 159.199 298.584, 143.216 295.162, 140.410 293.443 C 139.260 292.739, 136.560 291.682, 134.410 291.094 C 127.630 289.240, 124 286.429, 124 283.034 C 124 278.842, 127.860 277.922, 133.429 280.788 C 140.376 284.363, 145.142 286.090, 155.500 288.784 C 165.020 291.260, 166.748 291.386, 191.500 291.398 C 215.587 291.409, 218.162 291.237, 226.500 289.062 C 231.450 287.770, 236.738 286.092, 238.250 285.331 L 241 283.949 241 248.629 C 241 215.683, 241.123 213.199, 242.829 211.655 C 245.403 209.325, 247.535 209.594, 249.853 212.540 C 251.770 214.977, 251.844 216.463, 251.675 249.101 C 251.504 282.298, 251.550 283.168, 253.564 285.061 C 254.700 286.127, 256.303 287, 257.126 287 C 257.950 287, 262.145 287.922, 266.449 289.050 C 273.340 290.855, 277.336 291.103, 299.933 291.127 C 322.985 291.152, 326.553 290.930, 335.046 288.937 C 344.510 286.717, 353.667 283.592, 359.733 280.512 C 361.511 279.609, 364.436 279.012, 366.233 279.185 C 368.927 279.445, 369.554 279.965, 369.807 282.155 C 370.370 287.015, 361.869 291.360, 342.500 296.116 C 319.973 301.647, 281.762 301.954, 261.212 296.768 C 251.588 294.340, 250.065 294.879, 251.876 300.073 C 252.494 301.847, 253.003 305.819, 253.007 308.899 C 253.010 311.980, 253.910 320.503, 255.007 327.840 C 256.103 335.177, 257.011 343.952, 257.024 347.340 C 257.038 350.728, 257.500 355.458, 258.052 357.852 C 258.604 360.245, 259.701 368.570, 260.489 376.352 C 263.045 401.588, 266.619 430.750, 268.127 438.679 C 269.147 444.042, 272.140 448.219, 277.178 451.309 C 279.535 452.755, 284.706 452.970, 320.238 453.100 C 356.789 453.234, 360.945 453.083, 364.060 451.510 C 368.316 449.359, 373 445.067, 373 443.317 C 373 442.597, 373.843 439.419, 374.873 436.254 C 375.903 433.089, 377.247 427.125, 377.861 423 C 379.466 412.208, 380.891 403.373, 382.137 396.500 C 382.735 393.200, 383.814 386.450, 384.533 381.500 C 386.150 370.375, 388.527 356.052, 390.508 345.500 C 391.334 341.100, 392.007 336.067, 392.005 334.315 C 392.002 332.564, 392.641 328.064, 393.425 324.315 C 394.209 320.567, 395.344 313, 395.948 307.500 C 396.551 302, 397.483 295.025, 398.018 292 C 398.554 288.975, 399.653 279.361, 400.461 270.635 C 401.757 256.636, 401.755 252.636, 400.440 236.635 C 399.620 226.661, 398.285 215.708, 397.474 212.294 C 396.664 208.881, 396 204.728, 396 203.065 C 396 201.401, 395.357 198.344, 394.572 196.270 C 393.787 194.197, 391.945 188.225, 390.479 183 C 389.013 177.775, 386.955 171.670, 385.907 169.434 C 384.858 167.198, 384 165.070, 384 164.706 C 384 163.952, 379.244 153.639, 371.382 137.345 C 368.422 131.209, 366 125.853, 366 125.441 C 366 125.030, 364.846 122.175, 363.435 119.096 C 356.974 104.996, 356.530 103.723, 349.988 80.500 C 348.283 74.450, 346.453 67.836, 345.920 65.803 C 344.863 61.767, 340.069 56.357, 336.271 54.913 C 334.888 54.387, 296.012 54, 244.596 54 L 155.322 54 151.729 56.750 M 136.035 115.934 C 135.466 116.998, 135 118.078, 135 118.335 C 135 119.718, 151.563 135, 153.061 135 C 160.583 135, 159.741 130.462, 150.532 121.372 C 144.595 115.510, 142.450 114, 140.067 114 C 138.128 114, 136.705 114.682, 136.035 115.934 M 342.628 124.159 C 335.507 131.962, 334.023 136.238, 338 137.500 C 341.404 138.581, 343.651 137.162, 350.998 129.295 C 359.419 120.278, 359.931 117.678, 353.378 117.199 C 349.406 116.908, 349.014 117.162, 342.628 124.159 M 162.200 142.200 C 160.338 144.062, 160.777 148.044, 163.275 151.946 C 167.083 157.895, 167.966 159.410, 168.958 161.698 C 169.482 162.906, 171.058 164.647, 172.460 165.566 C 174.516 166.913, 175.299 166.996, 176.505 165.996 C 178.674 164.196, 178.385 157.760, 176 154.727 C 174.900 153.329, 174 151.758, 174 151.236 C 174 150.714, 172.404 148.198, 170.454 145.644 C 166.899 140.987, 164.439 139.961, 162.200 142.200 M 324.248 146.750 C 320.856 151.688, 316.824 159.127, 316.021 161.926 C 313.909 169.290, 322.276 170.256, 325.327 163 C 325.674 162.175, 327.087 159.700, 328.468 157.500 C 332.182 151.582, 333.177 148.841, 332.536 146.289 C 331.677 142.864, 326.728 143.139, 324.248 146.750 M 175 177 C 173.715 178.285, 172.997 180.341, 172.993 182.750 C 172.989 184.813, 172.703 189.489, 172.358 193.143 C 171.777 199.292, 171.894 199.873, 173.932 200.964 C 177.819 203.044, 180.281 200.339, 182.266 191.808 C 184.476 182.307, 184.454 178.721, 182.171 176.655 C 179.741 174.456, 177.433 174.567, 175 177 M 311.278 179.250 C 309.231 181.895, 309.192 184.084, 311.053 191.664 C 312.111 195.974, 312.982 200.272, 312.988 201.215 C 313.004 203.443, 316.507 205.291, 319.134 204.457 C 321.086 203.838, 321.168 203.241, 320.718 192.866 C 320.345 184.252, 319.866 181.510, 318.467 179.963 C 316.459 177.744, 312.729 177.374, 311.278 179.250 M 167.413 210.765 C 166.816 211.169, 165.037 213.750, 163.461 216.500 C 161.885 219.250, 159.299 223.140, 157.715 225.145 C 153.919 229.947, 154.275 233.381, 158.612 233.803 C 161.283 234.063, 162.277 233.424, 165.612 229.303 C 172.270 221.077, 174 218.177, 174 215.240 C 174 210.910, 170.608 208.605, 167.413 210.765 M 320.606 214.882 C 318.273 217.461, 319.167 220.300, 324.926 228.605 C 330.363 236.445, 333.765 238.428, 336.905 235.586 C 338.568 234.081, 338.697 233.400, 337.744 231.154 C 337.125 229.694, 335.804 227.571, 334.809 226.436 C 333.814 225.300, 333 224.085, 333 223.736 C 333 222.328, 326.898 214.175, 325.420 213.608 C 323.023 212.688, 322.457 212.838, 320.606 214.882 M 134.251 242.821 C 122.774 248.522, 120.862 252.133, 128.554 253.576 C 131.065 254.047, 133.481 253.609, 137.200 252.009 C 148.032 247.349, 152.701 242.755, 149.960 239.452 C 148.007 237.099, 144.072 237.943, 134.251 242.821 M 343.361 242.502 C 341.878 246.365, 343.978 249.097, 350.787 252.161 C 354.479 253.823, 358.439 255.629, 359.588 256.173 C 362.713 257.657, 367.090 256.778, 368.695 254.345 C 369.993 252.379, 369.876 251.966, 367.357 249.630 C 365.839 248.222, 363.225 246.775, 361.548 246.414 C 359.872 246.053, 356.660 244.687, 354.412 243.379 C 349.753 240.667, 344.233 240.230, 343.361 242.502 M 99.183 249.056 C 97.413 249.766, 96.941 250.631, 97.183 252.719 C 97.570 256.061, 100.959 257.971, 106.500 257.971 C 114.415 257.971, 118.740 253.032, 113.834 249.597 C 111.319 247.835, 102.993 247.528, 99.183 249.056 M 379 252 C 374.695 256.305, 378.480 261, 386.254 261 C 391.742 261, 394.460 259.878, 396.016 256.970 C 396.881 255.354, 396.615 254.524, 394.584 252.493 C 391.262 249.171, 382.119 248.881, 379 252 M 101.434 286.407 C 101.102 287.731, 101.383 289.868, 102.060 291.157 C 103.749 294.376, 111.809 302.270, 115.709 304.527 C 118.830 306.332, 118.975 306.332, 120.959 304.537 C 122.082 303.521, 123 302.044, 123 301.254 C 123 300.464, 119.513 296.262, 115.250 291.917 C 109.334 285.887, 106.854 284.015, 104.769 284.009 C 102.715 284.002, 101.888 284.596, 101.434 286.407 M 380.448 292.440 C 379.568 293.781, 376.296 296.978, 373.175 299.542 C 364.739 306.474, 364.135 311, 371.645 311 C 374.246 311, 376.142 310.001, 379.713 306.750 C 387.182 299.949, 389.939 296.643, 389.971 294.450 C 390.040 289.625, 383.233 288.188, 380.448 292.440 M 128.770 309.606 C 127.681 311.996, 127.868 312.447, 131.041 315.072 C 132.944 316.645, 137.825 319.567, 141.888 321.564 C 148.072 324.603, 149.662 325.020, 151.638 324.119 C 153.195 323.409, 154 322.199, 154 320.566 C 154 318.558, 152.719 317.350, 147.250 314.196 C 133.163 306.072, 130.663 305.451, 128.770 309.606 M 349.500 316.602 C 347.300 317.999, 343.619 319.980, 341.320 321.005 C 333.721 324.393, 333.387 330, 340.785 330 C 343.188 330, 346.847 328.521, 352.185 325.392 C 360.073 320.767, 362.624 318.068, 361.608 315.422 C 360.714 313.092, 353.997 313.747, 349.500 316.602 M 165 321.978 C 162.030 322.695, 161.125 326.350, 163.301 328.832 C 164.106 329.750, 165.080 331.538, 165.467 332.807 C 166.471 336.099, 170.399 337.362, 173.937 335.533 C 180.587 332.094, 183.415 325.315, 179.125 323.096 C 176.894 321.943, 168.048 321.243, 165 321.978 M 313 328.828 C 309.925 329.418, 309.461 329.906, 309.180 332.844 C 308.826 336.532, 310.718 339.286, 315.198 341.602 C 319.442 343.797, 320.740 343.328, 324.465 338.250 C 327.984 333.454, 328.814 330.621, 327.024 329.515 C 325.428 328.528, 316.767 328.104, 313 328.828 M 145.426 343.094 C 141.067 345.346, 136.938 347.652, 136.250 348.217 C 133.620 350.380, 135.428 356, 138.755 356 C 140.196 356, 148.490 352.586, 151 350.960 C 151.825 350.425, 153.919 349.253, 155.653 348.355 C 159.789 346.213, 161.497 342.640, 159.391 340.534 C 156.987 338.130, 153.963 338.684, 145.426 343.094 M 331.223 345.557 C 326.783 348.666, 329.171 352.509, 338.500 357.267 C 350.271 363.269, 350.958 363.516, 352.765 362.383 C 354.982 360.994, 355.536 357.350, 353.841 355.308 C 353.119 354.438, 350.722 352.869, 348.514 351.820 C 346.306 350.772, 342.250 348.594, 339.500 346.980 C 333.598 343.518, 334.028 343.592, 331.223 345.557 M 114.413 354.321 C 112.051 356.353, 111.835 357.008, 112.684 359.571 C 113.499 362.029, 114.265 362.551, 117.452 362.818 C 120.487 363.072, 121.826 362.583, 124.125 360.381 C 127.551 357.098, 127.566 356.985, 124.961 354.189 C 122.292 351.324, 117.833 351.380, 114.413 354.321 M 364.200 360.200 C 362.363 362.037, 362.772 365.808, 364.934 366.965 C 367.054 368.099, 373.912 368.355, 376.418 367.393 C 378.287 366.676, 378.538 361.938, 376.800 360.200 C 375.243 358.643, 365.757 358.643, 364.200 360.200" stroke="none" fill="#1f1f1f" fill-rule="evenodd"/></svg>