<svg xmlns="http://www.w3.org/2000/svg" width="500" height="500" viewBox="0 0 500 500" version="1.1"><path d="M 343.917 26.413 C 338.269 30.559, 335.842 35.251, 336.679 40.407 L 337.287 44.159 312.894 68.811 C 299.477 82.370, 288.214 93.604, 287.863 93.777 C 287.513 93.950, 285.123 92.271, 282.553 90.046 C 278.465 86.508, 277.265 86, 272.991 86 C 269.122 86, 267.522 86.538, 265.318 88.581 C 263.787 90, 262.051 91.463, 261.462 91.831 C 260.873 92.199, 259.348 94.216, 258.075 96.313 C 256.329 99.187, 255.902 101.007, 256.339 103.703 L 256.920 107.280 194.250 170.116 C 159.781 204.676, 130.523 234.650, 129.232 236.726 C 127.085 240.177, 126.937 241.229, 127.499 249.022 C 128.092 257.232, 128.021 257.631, 125.573 259.932 C 124.174 261.245, 122.731 263.935, 122.364 265.910 C 121.954 268.116, 119.511 272.198, 116.024 276.500 C 106.589 288.141, 105 290.950, 105 295.990 L 105 300.516 81.468 324.008 C 60.389 345.051, 57.965 347.806, 58.218 350.434 C 58.437 352.718, 59.140 353.538, 61.384 354.133 C 64.132 354.863, 65.384 353.773, 87.884 331.048 C 109.669 309.046, 111.821 307.151, 115.637 306.604 C 120.708 305.879, 125.465 303.190, 134.538 295.923 C 138.367 292.856, 143.663 289.547, 146.306 288.569 C 148.949 287.592, 152.175 285.646, 153.474 284.245 C 155.669 281.877, 156.269 281.743, 162.001 282.342 C 175.368 283.739, 170.223 287.962, 239.500 218.737 C 273.600 184.662, 302.694 155.932, 304.154 154.891 C 305.614 153.851, 307.991 153, 309.436 153 C 317.257 153, 326 144.522, 326 136.938 C 326 135.875, 324.500 133.317, 322.667 131.253 C 320.833 129.189, 319.029 126.664, 318.657 125.642 C 318.119 124.166, 322.977 118.797, 342.318 99.490 L 366.655 75.196 373.421 74.472 C 379.190 73.854, 380.651 73.280, 383.343 70.576 C 385.079 68.832, 387.395 65.730, 388.488 63.683 L 390.476 59.961 388.008 55.308 C 385.611 50.791, 366.075 30.700, 359.056 25.535 C 354.175 21.943, 349.650 22.206, 343.917 26.413 M 347.366 36.487 C 347.052 37.306, 347.292 39.398, 347.898 41.137 C 348.504 42.876, 349 44.938, 349 45.720 C 349 46.502, 337.075 58.965, 322.500 73.416 C 306.049 89.727, 296 100.423, 296 101.622 C 296 102.684, 299.130 106.660, 302.955 110.456 L 309.910 117.357 314.705 112.855 C 317.342 110.379, 329.694 98.090, 342.154 85.547 L 364.808 62.741 368.654 63.516 C 375.343 64.864, 376.237 64.679, 377.235 61.742 C 378.098 59.202, 377.556 58.296, 370.336 50.213 C 359.633 38.232, 355.602 35, 351.360 35 C 349.253 35, 347.718 35.572, 347.366 36.487 M 269.830 98.250 C 269.737 98.938, 269.621 101.750, 269.572 104.500 L 269.485 109.500 254.647 124.137 C 246.487 132.187, 239.967 139.387, 240.160 140.137 C 240.353 140.886, 247.564 148.425, 256.185 156.888 L 271.860 172.277 286.439 157.923 C 294.458 150.028, 301.734 143.169, 302.608 142.679 C 303.483 142.190, 305.548 142.060, 307.197 142.389 C 311.943 143.339, 315 142.166, 315 139.396 C 315 135.923, 275.940 97, 272.455 97 C 271.105 97, 269.924 97.563, 269.830 98.250 M 231.016 147.990 C 227.946 149.887, 140.760 237.653, 138.808 240.810 C 136.769 244.110, 136.755 244.380, 138.352 249.446 C 139.258 252.322, 140 256.455, 140 258.630 C 140 261.971, 140.670 263.241, 144.327 266.830 L 148.653 271.076 160.544 271.546 L 172.434 272.015 218.669 225.820 L 264.904 179.625 259.024 173.563 C 255.791 170.228, 250.075 164.309, 246.323 160.410 C 236.208 149.898, 232.628 146.994, 231.016 147.990 M 325.655 179.459 C 320.396 181.334, 317.388 184.414, 315.551 189.805 C 312.450 198.905, 314.634 209.152, 320.886 214.843 L 324.904 218.500 325.202 233.648 C 325.453 246.398, 325.777 249.102, 327.250 250.727 C 330.403 254.205, 329.506 257.513, 324.637 260.367 C 319.053 263.639, 314.816 268.495, 310.743 276.293 L 307.500 282.500 307.586 369.180 L 307.672 455.860 310.588 460.342 C 313.705 465.135, 320.364 471, 322.687 471 C 323.464 471, 325.414 471.680, 327.020 472.510 C 328.627 473.341, 336.142 475.011, 343.720 476.220 C 355.376 478.081, 361.662 478.426, 384.500 478.460 C 408.076 478.495, 413.149 478.215, 424.500 476.255 C 448.017 472.193, 456.288 467.115, 459.586 454.716 C 461.389 447.938, 461.701 294.137, 459.932 284.500 C 457.948 273.696, 451.090 264.525, 441.776 260.221 C 437.333 258.168, 436.884 255.428, 440.245 250.882 C 442.291 248.115, 442.523 246.508, 442.859 232.727 C 443.218 218.005, 443.293 217.557, 445.721 215.647 C 447.093 214.568, 449.517 211.889, 451.108 209.693 C 453.686 206.133, 454 204.886, 454 198.188 C 454 188.173, 451.291 183.232, 444.105 180.140 C 439.217 178.038, 438.161 178.001, 384.315 178.044 C 340.509 178.079, 328.728 178.363, 325.655 179.459 M 378 189.977 C 349.675 190.290, 326.387 190.648, 326.250 190.773 C 326.113 190.898, 326 194.359, 326 198.465 C 326 205.056, 326.249 206.063, 328.129 207.069 C 331.308 208.770, 438.416 207.985, 440.153 206.247 C 442.003 204.397, 442.552 192.696, 440.853 191.320 C 438.639 189.526, 431.927 189.383, 378 189.977 M 366.584 217.697 C 347.386 217.919, 337.219 218.403, 336.334 219.138 C 335.357 219.949, 335 223.476, 335 232.318 C 335 244.057, 335.074 244.468, 337.687 247.195 L 340.374 250 383.764 250 L 427.154 250 430.077 247.077 C 432.980 244.174, 433 244.074, 432.985 232.327 C 432.976 225.822, 432.639 219.991, 432.235 219.369 C 431.293 217.918, 405.133 217.252, 366.584 217.697 M 352.392 261.422 C 352.092 262.204, 352.350 263.785, 352.966 264.936 C 354.070 266.998, 354.530 267.025, 384.293 266.765 L 414.500 266.500 414.813 263.250 L 415.127 260 384.032 260 C 358.074 260, 352.847 260.235, 352.392 261.422 M 337 264.820 C 330.345 267.836, 323.508 274.205, 320.170 280.500 C 317.654 285.243, 317.518 286.245, 317.509 300 L 317.500 314.500 383.729 314.757 L 449.958 315.014 450.626 312.356 C 450.992 310.894, 450.998 303.877, 450.638 296.763 C 450.057 285.277, 449.686 283.305, 447.327 279.164 C 444.396 274.016, 442.946 272.599, 435.285 267.395 C 432.140 265.258, 429.163 263.980, 427.785 264.176 C 425.547 264.493, 425.490 264.809, 425 279.500 C 424.530 293.604, 424.342 294.743, 421.852 298.568 C 416.608 306.626, 417.203 306.500, 384.500 306.500 C 355.787 306.500, 355.463 306.477, 351.714 304.146 C 349.361 302.683, 346.904 299.846, 345.221 296.646 C 342.430 291.344, 342.428 291.317, 342.012 264.750 C 341.998 263.842, 339.068 263.883, 337 264.820 M 131.332 273.369 C 130.375 275.075, 120.596 286.314, 117.250 289.552 C 114.953 291.775, 114.130 297, 116.077 297 C 117.684 297, 126.803 290.251, 134.015 283.725 C 139.922 278.379, 140.307 277.774, 139.420 275.234 C 138.693 273.155, 137.710 272.426, 135.314 272.193 C 133.311 271.997, 131.860 272.426, 131.332 273.369 M 352.580 277.653 C 352.225 278.578, 352.316 279.716, 352.782 280.182 C 353.248 280.648, 367.326 280.911, 384.065 280.765 C 413.745 280.507, 414.500 280.450, 414.500 278.500 C 414.500 276.549, 413.745 276.493, 383.862 276.236 C 355.934 275.995, 353.168 276.120, 352.580 277.653 M 356.373 291.470 C 356.075 292.247, 355.987 293.697, 356.179 294.692 C 356.502 296.374, 358.385 296.519, 383.277 296.766 L 410.028 297.033 411.176 294.512 C 411.808 293.126, 412.139 291.829, 411.912 291.630 C 411.686 291.432, 399.219 290.996, 384.208 290.663 C 361.214 290.152, 356.830 290.279, 356.373 291.470 M 317.950 325.450 C 317.370 326.030, 317 350.756, 317 388.896 L 317 451.392 319.713 455.446 C 321.205 457.676, 322.507 459.639, 322.605 459.809 C 322.704 459.979, 325.871 461.243, 329.642 462.619 C 341.265 466.857, 380.680 468.607, 414.047 466.365 C 428.115 465.420, 431.637 464.841, 437.547 462.505 C 441.961 460.760, 445.413 458.630, 447 456.670 L 449.500 453.583 450 391.541 C 450.275 357.419, 450.243 328.375, 449.928 327 L 449.356 324.500 384.128 324.500 C 344.265 324.500, 318.531 324.869, 317.950 325.450 M 346.315 340.094 C 338.405 343.733, 338 344.916, 338.002 364.385 C 338.003 378.676, 338.292 382.077, 339.752 384.999 C 342.754 391.007, 343.284 391.084, 383.245 391.302 C 416.378 391.483, 419.811 391.345, 423.111 389.702 C 425.098 388.713, 427.235 386.779, 427.861 385.405 C 428.584 383.818, 428.987 376.261, 428.964 364.703 C 428.909 337.074, 430.439 337.962, 383.124 338.084 C 353.144 338.162, 350.161 338.325, 346.315 340.094 M 351.846 350.027 C 350.407 350.867, 350.230 352.831, 350.489 365.121 C 350.711 375.646, 351.133 379.479, 352.144 380.146 C 353.519 381.054, 412.605 380.389, 416.448 379.422 C 418.381 378.936, 418.512 378.099, 418.710 365.037 L 418.921 351.168 415.811 350.084 C 411.851 348.703, 354.201 348.652, 351.846 350.027 M 61.111 368.750 C 59.789 369.847, 58.622 372.540, 57.986 375.965 C 57.427 378.971, 56.037 383.471, 54.897 385.965 C 53.757 388.459, 51.794 392.750, 50.534 395.500 C 49.274 398.250, 47.502 402.300, 46.597 404.500 C 45.691 406.700, 44.064 410.161, 42.980 412.191 C 39.165 419.334, 38.396 434.771, 41.545 441 C 43.169 444.213, 49.772 450.821, 53 452.463 C 63.414 457.762, 72.863 456.332, 82.154 448.050 C 93.830 437.644, 93.973 427.212, 82.756 403.998 C 75.447 388.869, 71 377.522, 71 373.997 C 71 372.107, 70.111 370.446, 68.365 369.073 C 65.151 366.544, 63.841 366.486, 61.111 368.750 M 63 392.062 C 63 393, 59.218 401.926, 57.094 406 C 56.664 406.825, 55.843 408.400, 55.270 409.500 C 52.275 415.248, 50.041 421.942, 49.931 425.500 C 49.638 434.911, 49.922 435.994, 53.769 440.118 C 59.722 446.500, 68.110 447.069, 75.307 441.579 C 78.180 439.388, 79.038 437.929, 79.580 434.315 C 81.051 424.505, 79.196 418.442, 67.624 395.250 C 65.681 391.356, 63 389.507, 63 392.062" stroke="none" fill="#1d1d1d" fill-rule="evenodd"/></svg>