<svg xmlns="http://www.w3.org/2000/svg" width="500" height="500" viewBox="0 0 500 500" version="1.1"><path d="M 220.793 35.587 C 203.602 38.272, 177.998 45.146, 171.442 48.837 C 170.374 49.438, 164.753 52.122, 158.950 54.801 C 153.148 57.480, 144.992 61.741, 140.826 64.270 C 136.660 66.799, 131.653 69.536, 129.700 70.352 C 127.747 71.168, 124.428 73.407, 122.324 75.327 C 120.221 77.247, 115.350 81.488, 111.500 84.752 C 102.039 92.773, 89.969 105.004, 83.133 113.500 C 80.035 117.350, 77.005 120.950, 76.399 121.500 C 74.373 123.341, 70 129.676, 70 130.771 C 70 131.366, 67.808 135.425, 65.129 139.790 C 60.842 146.774, 57.898 152.736, 49.053 172.337 C 42.407 187.066, 35.535 219.702, 34.595 241 C 32.912 279.122, 41.952 317.320, 60.766 351.581 L 64.565 358.500 62.706 365 C 61.684 368.575, 59.763 375.100, 58.439 379.500 C 55.416 389.545, 43.462 430.834, 40.488 441.500 C 39.262 445.900, 37.300 452.585, 36.129 456.355 C 34.958 460.126, 34 463.897, 34 464.736 C 34 466.628, 35.369 466.389, 55.500 460.980 C 82.580 453.705, 100.395 449.009, 107 447.406 C 110.575 446.538, 117.100 444.789, 121.500 443.519 C 136.287 439.250, 143.010 437.768, 145.262 438.280 C 146.493 438.560, 154.313 441.989, 162.639 445.900 C 178.006 453.118, 191.044 457.522, 205.500 460.375 C 209.900 461.243, 215.975 462.467, 219 463.094 C 222.025 463.721, 233.050 464.459, 243.500 464.732 C 286.370 465.856, 324.834 455.741, 360.814 433.883 C 364.329 431.747, 367.772 430, 368.467 430 C 372.244 430, 404.586 400.781, 415.511 387.500 C 418.225 384.200, 422.180 379.560, 424.299 377.190 C 426.419 374.819, 428.802 371.325, 429.595 369.426 C 430.389 367.527, 432.863 362.991, 435.094 359.346 C 438.628 353.572, 446.107 338.639, 451.440 326.706 C 454.205 320.520, 458.611 306.079, 460.351 297.500 C 461.243 293.100, 462.741 285.675, 463.679 281 C 465.004 274.396, 465.371 267.371, 465.326 249.500 C 465.272 228.009, 465.065 225.451, 462.165 210.500 C 459.147 194.943, 454.824 179.531, 451.254 171.603 C 445.673 159.208, 438.254 144.589, 434.410 138.416 C 431.985 134.520, 430 130.677, 430 129.876 C 430 128.538, 413.743 108.751, 405.148 99.628 C 399.508 93.641, 371.765 70, 370.379 70 C 369.701 70, 365.626 67.842, 361.323 65.205 C 350.638 58.657, 327.522 47.924, 316 44.162 C 305.324 40.676, 293.168 37.869, 278.761 35.560 C 266.595 33.611, 233.346 33.627, 220.793 35.587 M 230.415 72.043 C 220.471 73.178, 195.203 79.658, 184.783 83.746 C 166.805 90.799, 138.595 109.529, 124.062 124.062 C 108.410 139.714, 89.981 168.610, 82.886 188.624 C 79.245 198.897, 74.553 218.016, 72.890 229.364 C 72.177 234.224, 71.932 243.964, 72.249 254.864 C 72.693 270.163, 73.188 274.289, 75.983 286 C 79.156 299.296, 82.923 311.167, 86.772 320 C 89.199 325.571, 99.461 343.411, 102.645 347.594 C 106.324 352.428, 106.794 350.031, 93.736 393 C 88.062 411.670, 87.745 413, 88.972 413 C 89.528 413, 96.849 411.185, 105.241 408.968 C 113.634 406.750, 124.775 403.846, 130 402.515 C 135.225 401.184, 141.469 399.398, 143.876 398.547 C 149.797 396.453, 151.590 396.589, 155.317 399.411 C 165.350 407.009, 191.171 418.304, 207 422.019 C 211.675 423.116, 218.650 424.781, 222.500 425.718 C 228.029 427.065, 233.809 427.401, 250 427.317 C 268.447 427.222, 271.702 426.940, 282.500 424.500 C 289.100 423.008, 296.075 421.435, 298 421.003 C 315.684 417.034, 342.574 402.740, 361.815 387.081 C 366.939 382.911, 372.451 378.671, 374.065 377.658 C 375.679 376.645, 377 375.419, 377 374.934 C 377 374.448, 379.712 370.900, 383.027 367.048 C 394.212 354.053, 402.927 340.936, 411.297 324.500 C 414.919 317.387, 420.361 303.546, 421.324 299 C 421.615 297.625, 423.046 291.550, 424.505 285.500 C 429.440 265.028, 429.420 234.232, 424.457 213 C 420.465 195.925, 420.571 196.278, 416.219 185.500 C 409.133 167.952, 397.487 148.908, 384.620 133.828 C 381.138 129.746, 377.758 125.415, 377.109 124.204 C 376.460 122.992, 375.487 122, 374.946 122 C 374.404 122, 370.258 118.800, 365.731 114.888 C 356.319 106.755, 341.969 96.990, 330.919 91.200 C 326.750 89.016, 322.475 86.755, 321.419 86.176 C 314.979 82.646, 292.600 75.981, 278.500 73.393 C 268.587 71.573, 241.256 70.806, 230.415 72.043 M 168.470 149.352 C 164.756 151.027, 157.188 158.486, 151.639 165.940 C 149.363 168.998, 147.162 171.650, 146.750 171.833 C 146.338 172.017, 145.997 172.692, 145.994 173.333 C 145.990 173.975, 145.336 175.750, 144.539 177.278 C 140.219 185.558, 139.934 207.726, 143.982 220.500 C 147.437 231.404, 154.054 244.494, 162.118 256.379 C 166.178 262.362, 170.244 268.576, 171.153 270.188 C 174.341 275.841, 200.884 302.283, 211.906 310.787 C 215.979 313.929, 221.066 318.037, 223.210 319.915 C 225.354 321.793, 230.346 324.998, 234.304 327.037 C 238.262 329.076, 244.425 332.275, 248 334.147 C 257.674 339.213, 270.845 344.701, 282.836 348.663 C 308.517 357.148, 329.282 352.989, 346.097 335.993 C 349.725 332.325, 353.895 326.870, 355.362 323.871 C 358.381 317.702, 361.095 304.064, 360.090 300.119 C 359.362 297.261, 357.512 296.218, 329 282.581 C 305.199 271.197, 302.375 271.171, 293.997 282.250 C 284.254 295.136, 279.777 300.482, 278.009 301.341 C 276.768 301.943, 272.759 300.469, 263.874 296.143 C 244.960 286.934, 229.870 276.445, 220.453 265.961 C 208.042 252.143, 197 236.416, 197 232.557 C 197 231.314, 199.113 228.356, 202.067 225.462 C 204.854 222.733, 209.637 217.454, 212.696 213.731 C 217.728 207.607, 218.210 206.606, 217.750 203.231 C 217.274 199.733, 212.050 186.844, 206.511 175.500 C 205.168 172.750, 202.284 166.450, 200.103 161.500 C 194.809 149.488, 193.499 148.570, 181.180 148.243 C 174.639 148.069, 170.517 148.429, 168.470 149.352" stroke="none" fill="#fafbfa" fill-rule="evenodd"/></svg>